<svg xmlns="http://www.w3.org/2000/svg" width="20" height="18.606" viewBox="0 0 20 18.606">
  <path id="Path_11665" data-name="Path 11665" d="M84-864l-2.3,2.3a.912.912,0,0,1-1.087.213.942.942,0,0,1-.613-.938V-878a1.926,1.926,0,0,1,.588-1.412A1.926,1.926,0,0,1,82-880H98a1.926,1.926,0,0,1,1.413.588A1.926,1.926,0,0,1,100-878v12a1.926,1.926,0,0,1-.587,1.413A1.926,1.926,0,0,1,98-864Zm14-2v-12H95.5v6.125a.463.463,0,0,1-.25.437.471.471,0,0,1-.5-.012l-1.375-.825A.715.715,0,0,0,93-872.4a.715.715,0,0,0-.375.125l-1.375.825a.471.471,0,0,1-.5.012.463.463,0,0,1-.25-.437V-878H82v13.125L83.15-866Zm-16,0v0Z" transform="translate(-80 880)" fill="#41428e"/>
</svg>
