<svg xmlns="http://www.w3.org/2000/svg" width="13.402" height="8" viewBox="0 0 13.402 8">
  <path id="Path_11678" data-name="Path 11678" d="M342.1-696.3l-4.763-4.688a1.13,1.13,0,0,1-.336-.841,1.13,1.13,0,0,1,.336-.841,1.168,1.168,0,0,1,.855-.331,1.168,1.168,0,0,1,.855.331l5.618,5.529a1.053,1.053,0,0,1,.26.391,1.311,1.311,0,0,1,.076.451,1.311,1.311,0,0,1-.076.451,1.053,1.053,0,0,1-.26.391l-5.618,5.529a1.168,1.168,0,0,1-.855.331,1.168,1.168,0,0,1-.855-.331,1.13,1.13,0,0,1-.336-.841,1.13,1.13,0,0,1,.336-.841Z" transform="translate(-689.598 -337) rotate(90)" fill="#fff"/>
</svg>
