<svg xmlns="http://www.w3.org/2000/svg" width="39.569" height="60.875" viewBox="0 0 39.569 60.875">
  <path id="_3507759_empty_hourglass_iconoteka_time_timer_icon" data-name="3507759_empty_hourglass_iconoteka_time_timer_icon" d="M45.569,16.488V2H6V16.488A12.175,12.175,0,0,0,9.561,25.1l7.366,7.335L9.561,39.773A12.358,12.358,0,0,0,6,48.387V62.875H45.569V48.387a12.358,12.358,0,0,0-3.561-8.614l-7.366-7.335L42.008,25.1A12.175,12.175,0,0,0,45.569,16.488Zm-6.088,0a6.087,6.087,0,0,1-1.8,4.292l-8.4,8.431a4.566,4.566,0,0,0,0,6.453l8.4,8.431a6.087,6.087,0,0,1,1.8,4.292v8.4H12.088v-8.4a6.087,6.087,0,0,1,1.8-4.292l8.4-8.431a4.566,4.566,0,0,0,0-6.453l-8.4-8.431a6.087,6.087,0,0,1-1.8-4.292v-8.4H39.481Z" transform="translate(-6 -2)" fill="#e9e9e9"/>
</svg>
