<svg id="Group_15436" data-name="Group 15436" xmlns="http://www.w3.org/2000/svg" width="13" height="12.181" viewBox="0 0 13 12.181">
  <path id="Path_12575" data-name="Path 12575" d="M346.811-700.915l-4.571-4.571a.825.825,0,0,1-.251-.627.887.887,0,0,1,.269-.627.866.866,0,0,1,.636-.26.865.865,0,0,1,.636.26l5.2,5.2a.856.856,0,0,1,.2.3.923.923,0,0,1,.058.331.924.924,0,0,1-.058.332.859.859,0,0,1-.2.3l-5.216,5.216a.826.826,0,0,1-.628.251.887.887,0,0,1-.627-.269.866.866,0,0,1-.26-.636.864.864,0,0,1,.26-.636Z" transform="translate(-341.989 707)" fill="#fff"/>
  <path id="Path_12576" data-name="Path 12576" d="M346.811-700.915l-4.571-4.571a.825.825,0,0,1-.251-.627.887.887,0,0,1,.269-.627.866.866,0,0,1,.636-.26.865.865,0,0,1,.636.26l5.2,5.2a.856.856,0,0,1,.2.3.923.923,0,0,1,.058.331.924.924,0,0,1-.058.332.859.859,0,0,1-.2.3l-5.216,5.216a.826.826,0,0,1-.628.251.887.887,0,0,1-.627-.269.866.866,0,0,1-.26-.636.864.864,0,0,1,.26-.636Z" transform="translate(-335.989 707)" fill="#fff"/>
</svg>
