<svg xmlns="http://www.w3.org/2000/svg" width="19.139" height="13.843" viewBox="0 0 19.139 13.843">
  <path id="Path_12280" data-name="Path 12280" d="M175.645-700.222H161.018a.988.988,0,0,1-.728-.29.988.988,0,0,1-.29-.728.988.988,0,0,1,.29-.729.988.988,0,0,1,.728-.29h14.627l-4.176-4.176a.925.925,0,0,1-.29-.713,1.053,1.053,0,0,1,.311-.713,1,1,0,0,1,.718-.311.966.966,0,0,1,.718.3l5.918,5.918a.978.978,0,0,1,.229.336,1.051,1.051,0,0,1,.066.377,1.05,1.05,0,0,1-.066.377.974.974,0,0,1-.229.336l-5.9,5.9a.965.965,0,0,1-.718.3,1,1,0,0,1-.718-.31,1.025,1.025,0,0,1-.3-.723.971.971,0,0,1,.3-.723Z" transform="translate(-160 708.172)" fill="#c4c4c4"/>
</svg>
