<svg xmlns="http://www.w3.org/2000/svg" width="18" height="18" viewBox="0 0 18 18">
  <path id="_8665972_stamp_icon" data-name="8665972_stamp_icon" d="M1.125,17.989h15.75v-2.25H1.125ZM14.593,8.958H12.287A1.006,1.006,0,0,1,11.25,7.953v-.33A5.934,5.934,0,0,1,12,4.894a3.318,3.318,0,0,0,.315-2.15,3.375,3.375,0,0,0-6.694.62,3.3,3.3,0,0,0,.307,1.393,7.145,7.145,0,0,1,.787,3.22.96.96,0,0,1-1.005.981H3.375A3.375,3.375,0,0,0,0,12.333v2.25H18v-2.25A3.383,3.383,0,0,0,14.593,8.958Z" transform="translate(0 0.011)" fill="#4f54a4"/>
</svg>
