<svg xmlns="http://www.w3.org/2000/svg" width="16" height="16" viewBox="0 0 16 16">
  <path id="Path_11704" data-name="Path 11704" d="M226.33-732.243l-6.278,6.278a.973.973,0,0,1-.714.3.972.972,0,0,1-.713-.3.972.972,0,0,1-.3-.713.972.972,0,0,1,.3-.713l6.278-6.278-6.278-6.278a.972.972,0,0,1-.3-.714.972.972,0,0,1,.3-.713.972.972,0,0,1,.713-.3.972.972,0,0,1,.714.3l6.278,6.278,6.277-6.278a.972.972,0,0,1,.714-.3.972.972,0,0,1,.713.3.972.972,0,0,1,.3.713.972.972,0,0,1-.3.714l-6.278,6.278,6.278,6.278a.972.972,0,0,1,.3.713.972.972,0,0,1-.3.713.972.972,0,0,1-.713.3.973.973,0,0,1-.714-.3Z" transform="translate(-218.33 741.67)" fill="#7b7b7b"/>
</svg>
