<svg xmlns="http://www.w3.org/2000/svg" width="77.368" height="30" viewBox="0 0 77.368 30">
  <g id="ipca_logo_SVG" data-name="ipca logo SVG" transform="translate(-266 147.525)">
    <rect id="Rectangle_712" data-name="Rectangle 712" width="77.368" height="30" transform="translate(266 -147.525)" fill="#bbb" opacity="0"/>
    <g id="Group_12825" data-name="Group 12825" transform="translate(267.935 -146.107)">
      <g id="Group_12823" data-name="Group 12823" transform="translate(31.678 5.916)">
        <rect id="Rectangle_713" data-name="Rectangle 713" width="2.42" height="13.306" transform="translate(0 0.303)"/>
        <path id="Path_11754" data-name="Path 11754" d="M209.1,200.608c0-1.7-.028-3.08-.109-4.345h2.172l.137,2.284h.055a5.132,5.132,0,0,1,4.7-2.584c3.243,0,5.662,2.721,5.662,6.763,0,4.783-2.943,7.148-6.046,7.148a4.632,4.632,0,0,1-4.1-2.091h-.055v7.231H209.1V200.608Zm2.42,3.546h0a3.892,3.892,0,0,0,.11.989,3.7,3.7,0,0,0,3.6,2.832c2.555,0,4.04-2.091,4.04-5.141,0-2.666-1.374-4.948-3.931-4.948a3.863,3.863,0,0,0-3.684,2.968,6.7,6.7,0,0,0-.138.991Z" transform="translate(-204.076 -195.96)" fill-rule="evenodd"/>
        <path id="Path_11755" data-name="Path 11755" d="M273.557,209.1a9.358,9.358,0,0,1-3.822.769c-4.013,0-6.625-2.722-6.625-6.818a6.783,6.783,0,0,1,7.147-7.093,7.631,7.631,0,0,1,3.355.714l-.549,1.842a5.93,5.93,0,0,0-2.805-.632c-3.051,0-4.7,2.282-4.7,5.058,0,3.079,1.979,4.976,4.618,4.976a6.943,6.943,0,0,0,2.968-.632Z" transform="translate(-243.355 -195.956)" fill-rule="evenodd"/>
        <path id="Path_11756" data-name="Path 11756" d="M317.322,206.377a22.383,22.383,0,0,0,.194,3.19h-2.173l-.22-1.676h-.082a4.917,4.917,0,0,1-4.069,1.979,3.791,3.791,0,0,1-4.069-3.821c0-3.216,2.859-4.976,8-4.949v-.275c0-1.1-.3-3.106-3.023-3.078a6.423,6.423,0,0,0-3.491.989l-.551-1.622a8.62,8.62,0,0,1,4.4-1.154c4.095,0,5.084,2.776,5.084,5.443v4.976Zm-2.365-3.6h0c-2.639-.054-5.634.412-5.634,3a2.12,2.12,0,0,0,2.254,2.308,3.363,3.363,0,0,0,3.272-2.226,2.509,2.509,0,0,0,.108-.769Z" transform="translate(-275.139 -195.958)" fill-rule="evenodd"/>
      </g>
      <path id="Path_11757" data-name="Path 11757" d="M141.074,192.808c1.143-.133,1.751-.7,2.547-.4,0,0,.788.316,1.011.409.915.362.772.965,1.287,1.768a2.661,2.661,0,0,0,3.819.663,2.635,2.635,0,0,0-2.365-4.628c-1.106.3-1.338,1.295-2.375.966l-1.06-.473s-1.7-.8-.771-3.1c0,0,.506-1.223.991-2.4a2.945,2.945,0,0,1,2.061-1.584c1.806-.588,3.463-1.866,2.768-4.615s-4.074-3.042-5.686-1.52a3.765,3.765,0,0,0-.622,4.541,3.417,3.417,0,0,1,.152,2.773l-.894,2.207c-.343.824-.719.813-1.563,1.037a2.219,2.219,0,0,0,.7,4.363Z" transform="translate(-122.75 -176.971)" fill="#0faff0" fill-rule="evenodd"/>
      <path id="Path_11758" data-name="Path 11758" d="M97.551,193.9a10.3,10.3,0,0,0-6.473-6.841c-3.69-1.423-7.093-1.4-8.357-.039-.617.666-.745,2.1.16,3.9,1,2,1.107,3.914,2.15,5.627,1.22,2,4.3,1.764,4.848,1.677,0,0,4.016-.41,5.253-.477,1.852-.1,1.8-.869,1.127-1.239-.619-.34-.956-.5-2.085-1.084a2.935,2.935,0,0,0-2.6.11c-1.763.711-3.851.8-5.088-1.755s1.164-4.949,3.378-4.817a3.763,3.763,0,0,1,3.4,3.077,3.427,3.427,0,0,0,1.668,2.223s.987.524,1.564.838S98,195.286,97.551,193.9Z" transform="translate(-82.231 -183.521)" fill="#0faff0" fill-rule="evenodd"/>
      <path id="Path_11759" data-name="Path 11759" d="M120.7,235.686c.97,2.743.14,7.592-1.958,8-2.168.419-8.019-2.287-7.937-5.188a2.811,2.811,0,0,1,1.457-2.289,23.762,23.762,0,0,1,4.5-2.2c1.388-.589,1.8.317,1.617.71-.108.23-.261.534-.261.534-.581.918-1.4.3-2.439.784a2.638,2.638,0,0,0,1.168,5.069,2.665,2.665,0,0,0,2.5-2.963c-.122-.946-.619-1.316-.152-2.183.112-.215.2-.387.3-.575A.683.683,0,0,1,120.7,235.686Z" transform="translate(-102.965 -217.517)" fill="#0faff0" fill-rule="evenodd"/>
      <g id="Group_12824" data-name="Group 12824" transform="translate(41.402 21.696)">
        <path id="Path_11760" data-name="Path 11760" d="M227.52,257.419l-.431,1.309h-.557l1.414-4.162h.648l1.422,4.162h-.576L229,257.419Zm1.367-.421h0l-.415-1.2c-.086-.271-.147-.518-.208-.759h-.02c-.055.241-.123.5-.2.753l-.41,1.2Z" transform="translate(-226.532 -254.273)" fill="#0faff0" fill-rule="evenodd"/>
        <path id="Path_11761" data-name="Path 11761" d="M248.179,253.753v3.612c0,.266.006.569.026.774h-.488l-.025-.518h-.012a1.1,1.1,0,0,1-1.013.587,1.367,1.367,0,0,1-1.285-1.519,1.429,1.429,0,0,1,1.34-1.606.989.989,0,0,1,.9.451h.013v-1.779Zm-.542,2.613h0l-.024-.235a.8.8,0,0,0-.784-.624c-.563,0-.9.495-.9,1.149,0,.611.3,1.11.883,1.11a.823.823,0,0,0,.8-.648l.024-.232Z" transform="translate(-240.212 -253.684)" fill="#0faff0" fill-rule="evenodd"/>
        <path id="Path_11762" data-name="Path 11762" d="M259.508,261.721a1.422,1.422,0,0,1-1.433-1.538,1.462,1.462,0,0,1,1.481-1.587A1.413,1.413,0,0,1,261,260.128a1.464,1.464,0,0,1-1.481,1.593Zm.019-.408h0c.518,0,.908-.487.908-1.168,0-.506-.254-1.143-.9-1.143s-.914.592-.914,1.162c0,.654.371,1.148.894,1.148Z" transform="translate(-249.423 -257.198)" fill="#0faff0" fill-rule="evenodd"/>
        <path id="Path_11763" data-name="Path 11763" d="M270.621,261.094a1.541,1.541,0,0,0,.724.21c.387,0,.575-.194.575-.445s-.155-.4-.549-.549c-.545-.2-.8-.488-.8-.847a.925.925,0,0,1,1.03-.877,1.39,1.39,0,0,1,.729.186l-.129.387a1.222,1.222,0,0,0-.611-.172c-.321,0-.494.186-.494.408,0,.252.174.364.563.512.512.191.783.452.783.9,0,.531-.413.9-1.112.9a1.7,1.7,0,0,1-.839-.209Z" transform="translate(-258.437 -257.189)" fill="#0faff0" fill-rule="evenodd"/>
        <path id="Path_11764" data-name="Path 11764" d="M279.88,260.234a.954.954,0,0,0,1.02,1.037,2.08,2.08,0,0,0,.829-.148l.1.383a2.43,2.43,0,0,1-1,.191,1.394,1.394,0,0,1-1.471-1.507,1.458,1.458,0,0,1,1.409-1.618,1.261,1.261,0,0,1,1.227,1.409,1.511,1.511,0,0,1-.017.259l-2.095-.006Zm1.587-.387h0a.777.777,0,0,0-.748-.884.9.9,0,0,0-.833.884Z" transform="translate(-264.868 -257.181)" fill="#0faff0" fill-rule="evenodd"/>
        <path id="Path_11765" data-name="Path 11765" d="M296.846,261.721a1.423,1.423,0,0,1-1.433-1.538,1.463,1.463,0,0,1,1.481-1.587,1.415,1.415,0,0,1,1.44,1.532,1.466,1.466,0,0,1-1.482,1.593Zm.019-.408h0c.518,0,.908-.487.908-1.168,0-.506-.252-1.143-.9-1.143s-.914.592-.914,1.162c0,.654.371,1.148.9,1.148Z" transform="translate(-276.522 -257.198)" fill="#0faff0" fill-rule="evenodd"/>
        <path id="Path_11766" data-name="Path 11766" d="M307.661,257.956v-2.576h-.413v-.413h.413v-.143a1.408,1.408,0,0,1,.354-1.045,1.033,1.033,0,0,1,.721-.278,1.247,1.247,0,0,1,.465.086l-.069.421a.838.838,0,0,0-.352-.068c-.457,0-.581.407-.581.864v.161h.723v.414h-.716v2.575Z" transform="translate(-285.114 -253.502)" fill="#0faff0" fill-rule="evenodd"/>
        <rect id="Rectangle_714" data-name="Rectangle 714" width="0.544" height="4.385" transform="translate(25.611 0.069)" fill="#0faff0"/>
        <path id="Path_11767" data-name="Path 11767" d="M325.238,255a.349.349,0,0,1,.013-.7.334.334,0,0,1,.345.345.341.341,0,0,1-.351.353Zm-.259,3.538h0v-2.989h.542v2.989Z" transform="translate(-297.923 -254.08)" fill="#0faff0" fill-rule="evenodd"/>
        <path id="Path_11768" data-name="Path 11768" d="M329.551,257.956v-2.576h-.415v-.414h.415v-.143a1.416,1.416,0,0,1,.351-1.045,1.035,1.035,0,0,1,.723-.278,1.245,1.245,0,0,1,.463.086l-.069.422a.837.837,0,0,0-.352-.068c-.457,0-.581.407-.581.864v.161h.722v.413h-.715v2.576Z" transform="translate(-300.999 -253.502)" fill="#0faff0" fill-rule="evenodd"/>
        <path id="Path_11769" data-name="Path 11769" d="M336.5,260.234a.95.95,0,0,0,1.017,1.037,2.063,2.063,0,0,0,.827-.148l.1.383a2.426,2.426,0,0,1-1,.191,1.394,1.394,0,0,1-1.469-1.507,1.456,1.456,0,0,1,1.407-1.618,1.262,1.262,0,0,1,1.229,1.409,1.335,1.335,0,0,1-.02.259l-2.091-.006Zm1.585-.387h0a.774.774,0,0,0-.747-.884.9.9,0,0,0-.834.884Z" transform="translate(-305.964 -257.181)" fill="#0faff0" fill-rule="evenodd"/>
      </g>
    </g>
  </g>
</svg>
