<svg xmlns="http://www.w3.org/2000/svg" width="11.865" height="11.865" viewBox="0 0 11.865 11.865">
  <path id="Path_11812" data-name="Path 11812" d="M224.263-734.68l-4.655,4.655a.721.721,0,0,1-.529.219.721.721,0,0,1-.529-.219.721.721,0,0,1-.219-.529.721.721,0,0,1,.219-.529l4.655-4.655-4.655-4.655a.721.721,0,0,1-.219-.529.721.721,0,0,1,.219-.529.721.721,0,0,1,.529-.219.721.721,0,0,1,.529.219l4.655,4.655,4.655-4.655a.721.721,0,0,1,.529-.219.721.721,0,0,1,.529.219.721.721,0,0,1,.219.529.721.721,0,0,1-.219.529l-4.655,4.655,4.655,4.655a.721.721,0,0,1,.219.529.721.721,0,0,1-.219.529.721.721,0,0,1-.529.219.721.721,0,0,1-.529-.219Z" transform="translate(-218.33 741.67)" fill="#7b7b7b" opacity="0.7"/>
</svg>
