<svg xmlns="http://www.w3.org/2000/svg" xmlns:xlink="http://www.w3.org/1999/xlink" width="54" height="54" viewBox="0 0 54 54">
  <defs>
    <filter id="Path_11914" x="0" y="0" width="54" height="54" filterUnits="userSpaceOnUse">
      <feOffset dx="3" dy="3" input="SourceAlpha"/>
      <feGaussianBlur stdDeviation="3" result="blur"/>
      <feFlood flood-color="#bb86fc" flood-opacity="0.349"/>
      <feComposite operator="in" in2="blur"/>
      <feComposite in="SourceGraphic"/>
    </filter>
    <filter id="Rectangle_815" x="4.826" y="4.748" width="43.592" height="44.664" filterUnits="userSpaceOnUse">
      <feOffset dx="3" dy="3" input="SourceAlpha"/>
      <feGaussianBlur stdDeviation="2" result="blur-2"/>
      <feFlood flood-opacity="0.2"/>
      <feComposite operator="in" in2="blur-2"/>
      <feComposite in="SourceGraphic"/>
    </filter>
    <filter id="Rectangle_816" x="8" y="8" width="36" height="36" filterUnits="userSpaceOnUse">
      <feOffset dx="2" dy="2" input="SourceAlpha"/>
      <feGaussianBlur stdDeviation="2" result="blur-3"/>
      <feFlood flood-opacity="0.2"/>
      <feComposite operator="in" in2="blur-3"/>
      <feComposite in="SourceGraphic"/>
    </filter>
  </defs>
  <g id="Group_13501" data-name="Group 13501" transform="translate(-6 -74)">
    <g id="Group_13499" data-name="Group 13499">
      <g transform="matrix(1, 0, 0, 1, 6, 74)" filter="url(#Path_11914)">
        <path id="Path_11914-2" data-name="Path 11914" d="M4,0H32a4,4,0,0,1,4,4V32a4,4,0,0,1-4,4H4a4,4,0,0,1-4-4V4A4,4,0,0,1,4,0Z" transform="translate(6 6)" fill="#6369cc"/>
      </g>
      <path id="Path_11912" data-name="Path 11912" d="M-5639-5790v26.931a6.173,6.173,0,0,0,1.4,2.46,4.049,4.049,0,0,0,2.314.868h26.906Z" transform="translate(5652.826 5874)" fill="#fff" opacity="0.25"/>
      <g transform="matrix(1, 0, 0, 1, 6, 74)" filter="url(#Rectangle_815)">
        <rect id="Rectangle_815-2" data-name="Rectangle 815" width="21.631" height="25" rx="1" transform="matrix(0.85, -0.53, 0.53, 0.85, 7.83, 19.21)" fill="#4f54a4"/>
      </g>
      <g transform="matrix(1, 0, 0, 1, 6, 74)" filter="url(#Rectangle_816)">
        <g id="Rectangle_816-2" data-name="Rectangle 816" transform="translate(12 12)" fill="#fff" stroke="#e4d8ff" stroke-width="1">
          <rect width="24" height="24" rx="1" stroke="none"/>
          <rect x="0.5" y="0.5" width="23" height="23" rx="0.5" fill="none"/>
        </g>
      </g>
    </g>
    <g id="Group_13227" data-name="Group 13227" transform="translate(7 -50)">
      <g id="Group_13081" data-name="Group 13081" transform="translate(-2)">
        <rect id="Rectangle_817" data-name="Rectangle 817" width="9" height="2.5" rx="1" transform="translate(15 141)" fill="#41428e"/>
        <rect id="Rectangle_819" data-name="Rectangle 819" width="9" height="2.5" rx="1" transform="translate(15 147)" fill="#41428e"/>
        <rect id="Rectangle_820" data-name="Rectangle 820" width="9" height="2.5" rx="1" transform="translate(15 153)" fill="#41428e"/>
      </g>
      <path id="Path_11982" data-name="Path 11982" d="M246.424-825.5l-5.484-5.693v-1.423h2.685a2.885,2.885,0,0,0,1.957-.728,2.959,2.959,0,0,0,.983-1.957H240v-1.342h6.418a2.88,2.88,0,0,0-1.057-1.447,2.85,2.85,0,0,0-1.735-.567H240V-840h9.667v1.343h-2.94a3.542,3.542,0,0,1,.691.933,4.938,4.938,0,0,1,.423,1.081h1.826v1.342h-1.752a4.327,4.327,0,0,1-1.376,2.91,4.154,4.154,0,0,1-2.913,1.118h-.893l5.551,5.773Z" transform="translate(-216.771 981)" fill="#41428e"/>
    </g>
  </g>
</svg>
