<svg xmlns="http://www.w3.org/2000/svg" width="18" height="18" viewBox="0 0 18 18">
  <path id="Path_11777" data-name="Path 11777" d="M87.695-869.095,85.58-871.21a.733.733,0,0,0-.54-.218.758.758,0,0,0-.555.232.733.733,0,0,0-.217.54.733.733,0,0,0,.217.54l2.685,2.7a.719.719,0,0,0,.525.225.719.719,0,0,0,.525-.225l5.28-5.28a.758.758,0,0,0,.232-.555.758.758,0,0,0-.232-.555.767.767,0,0,0-.562-.21.768.768,0,0,0-.547.225ZM89-862a8.727,8.727,0,0,1-3.495-.709,9.119,9.119,0,0,1-2.865-1.931,9.118,9.118,0,0,1-1.931-2.865A8.727,8.727,0,0,1,80-871a8.764,8.764,0,0,1,.709-3.51,9.026,9.026,0,0,1,1.931-2.857,9.181,9.181,0,0,1,2.865-1.924A8.726,8.726,0,0,1,89-880a8.763,8.763,0,0,1,3.51.709,9.088,9.088,0,0,1,2.858,1.924,9.088,9.088,0,0,1,1.924,2.857A8.764,8.764,0,0,1,98-871a8.727,8.727,0,0,1-.709,3.495,9.181,9.181,0,0,1-1.924,2.865,9.027,9.027,0,0,1-2.858,1.931A8.764,8.764,0,0,1,89-862Z" transform="translate(-80 880)" fill="#28a745"/>
</svg>
