<svg xmlns="http://www.w3.org/2000/svg" xmlns:xlink="http://www.w3.org/1999/xlink" width="14" height="14" viewBox="0 0 14 14">
  <defs>
    <clipPath id="clip-path">
      <rect id="Rectangle_16929" data-name="Rectangle 16929" width="14" height="14" transform="translate(-1943 -3532)" fill="#9d9d9d"/>
    </clipPath>
  </defs>
  <g id="Mask_Group_11" data-name="Mask Group 11" transform="translate(1943 3532)" clip-path="url(#clip-path)">
    <g id="_39._Office" data-name="39. Office" transform="translate(-1943 -3533)">
      <path id="Path_12076" data-name="Path 12076" d="M14.859,6.883H10.442a.442.442,0,0,1,0-.883h4.417a.442.442,0,0,1,0,.883Z" transform="translate(-5.65 -2.233)" fill="#9d9d9d"/>
      <path id="Path_12077" data-name="Path 12077" d="M14.859,10.883H10.442a.442.442,0,0,1,0-.883h4.417a.442.442,0,0,1,0,.883Z" transform="translate(-5.65 -4.503)" fill="#9d9d9d"/>
      <path id="Path_12078" data-name="Path 12078" d="M14.859,14.883H10.442a.442.442,0,0,1,0-.883h4.417a.442.442,0,0,1,0,.883Z" transform="translate(-5.65 -6.754)" fill="#9d9d9d"/>
      <path id="Path_12079" data-name="Path 12079" d="M14.859,18.883H10.442a.442.442,0,0,1,0-.883h4.417a.442.442,0,0,1,0,.883Z" transform="translate(-5.65 -9.005)" fill="#9d9d9d"/>
      <path id="Path_12080" data-name="Path 12080" d="M5.325,14.883H4.442a.442.442,0,0,1,0-.883h.883a.442.442,0,0,1,0,.883Z" transform="translate(-2.233 -6.754)" fill="#9d9d9d"/>
      <path id="Path_12081" data-name="Path 12081" d="M5.325,18.883H4.442a.442.442,0,0,1,0-.883h.883a.442.442,0,0,1,0,.883Z" transform="translate(-2.233 -9.005)" fill="#9d9d9d"/>
      <path id="Path_12082" data-name="Path 12082" d="M25.325,14.883h-.883a.442.442,0,0,1,0-.883h.883a.442.442,0,0,1,0,.883Z" transform="translate(-13.534 -6.754)" fill="#9d9d9d"/>
      <path id="Path_12083" data-name="Path 12083" d="M25.325,18.883h-.883a.442.442,0,0,1,0-.883h.883a.442.442,0,0,1,0,.883Z" transform="translate(-13.534 -9.005)" fill="#9d9d9d"/>
      <path id="Path_12084" data-name="Path 12084" d="M8.61,14.25H6.435A.436.436,0,0,1,6,13.813V3.313A1.309,1.309,0,0,1,7.3,2h6.09a1.309,1.309,0,0,1,1.3,1.313v.875a.435.435,0,1,1-.87,0V3.313a.436.436,0,0,0-.435-.437H7.3a.436.436,0,0,0-.435.438V13.375H8.61a.438.438,0,0,1,0,.875Z" transform="translate(-3.35)" fill="#9d9d9d"/>
      <path id="Path_12085" data-name="Path 12085" d="M19.417,20.509H15.442a.442.442,0,0,1,0-.883h3.534V13.442a.442.442,0,0,1,.883,0v6.626A.442.442,0,0,1,19.417,20.509Z" transform="translate(-8.471 -6.259)" fill="#9d9d9d"/>
      <path id="Path_12086" data-name="Path 12086" d="M3.092,18.834H.442A.442.442,0,0,1,0,18.393V11.325A1.325,1.325,0,0,1,1.325,10H3.092a.442.442,0,0,1,.442.442v7.951A.442.442,0,0,1,3.092,18.834ZM.883,17.951H2.65V10.883H1.325a.442.442,0,0,0-.442.442Z" transform="translate(0 -4.584)" fill="#9d9d9d"/>
      <path id="Path_12087" data-name="Path 12087" d="M27.092,18.834h-2.65A.442.442,0,0,1,24,18.393V10.442A.442.442,0,0,1,24.442,10h1.767a1.325,1.325,0,0,1,1.325,1.325v7.067A.442.442,0,0,1,27.092,18.834Zm-2.209-.883H26.65V11.325a.442.442,0,0,0-.442-.442H24.883Z" transform="translate(-13.534 -4.584)" fill="#9d9d9d"/>
      <path id="Path_12088" data-name="Path 12088" d="M14.975,25.534a.442.442,0,0,1-.442-.442V22.883h-2.65v2.209a.442.442,0,0,1-.883,0V22.883A.883.883,0,0,1,11.883,22h2.65a.883.883,0,0,1,.883.883v2.209A.442.442,0,0,1,14.975,25.534Z" transform="translate(-6.209 -11.284)" fill="#9d9d9d"/>
    </g>
  </g>
</svg>
