<svg xmlns="http://www.w3.org/2000/svg" width="118.319" height="45.879" viewBox="0 0 118.319 45.879">
  <g id="ipca_logo_SVG" data-name="ipca logo SVG" transform="translate(-266 147.525)">
    <rect id="Rectangle_712" data-name="Rectangle 712" width="118.319" height="45.879" transform="translate(266 -147.525)" fill="#bbb" opacity="0"/>
    <g id="Group_12825" data-name="Group 12825" transform="translate(268.97 -145.347)">
      <g id="Group_12823" data-name="Group 12823" transform="translate(48.181 8.909)">
        <rect id="Rectangle_713" data-name="Rectangle 713" width="3.715" height="20.425" transform="translate(0 0.465)" fill="#fafeff"/>
        <path id="Path_11754" data-name="Path 11754" d="M209.158,203.093c0-2.615-.043-4.727-.168-6.669h3.334l.211,3.507h.084a7.878,7.878,0,0,1,7.218-3.967c4.978,0,8.691,4.178,8.691,10.381,0,7.342-4.517,10.972-9.281,10.972a7.11,7.11,0,0,1-6.29-3.209h-.084v11.1h-3.715V203.093Zm3.715,5.443h0a5.974,5.974,0,0,0,.169,1.519,5.684,5.684,0,0,0,5.527,4.348c3.923,0,6.2-3.209,6.2-7.892,0-4.093-2.11-7.6-6.034-7.6a5.93,5.93,0,0,0-5.655,4.556,10.29,10.29,0,0,0-.212,1.521Z" transform="translate(-201.446 -195.959)" fill="#fafeff" fill-rule="evenodd"/>
        <path id="Path_11755" data-name="Path 11755" d="M279.147,216.13a14.365,14.365,0,0,1-5.867,1.181c-6.16,0-10.17-4.179-10.17-10.465s4.3-10.888,10.97-10.888a11.714,11.714,0,0,1,5.15,1.1l-.843,2.828a9.1,9.1,0,0,0-4.306-.97c-4.683,0-7.214,3.5-7.214,7.764,0,4.727,3.038,7.638,7.089,7.638a10.657,10.657,0,0,0,4.556-.971Z" transform="translate(-232.785 -195.956)" fill="#fafeff" fill-rule="evenodd"/>
        <path id="Path_11756" data-name="Path 11756" d="M322.9,211.951a34.353,34.353,0,0,0,.3,4.9h-3.336l-.337-2.574h-.126a7.548,7.548,0,0,1-6.246,3.038c-4.134,0-6.245-2.912-6.245-5.866,0-4.937,4.389-7.639,12.279-7.6v-.422c0-1.688-.462-4.768-4.641-4.724a9.859,9.859,0,0,0-5.359,1.518l-.845-2.49a13.233,13.233,0,0,1,6.754-1.771c6.286,0,7.8,4.261,7.8,8.355v7.638Zm-3.63-5.527h0c-4.05-.083-8.649.633-8.649,4.6a3.254,3.254,0,0,0,3.46,3.543,5.162,5.162,0,0,0,5.023-3.417,3.852,3.852,0,0,0,.165-1.181Z" transform="translate(-258.143 -195.957)" fill="#fafeff" fill-rule="evenodd"/>
      </g>
      <path id="Path_11757" data-name="Path 11757" d="M142.341,201.281c1.755-.2,2.688-1.07,3.91-.619,0,0,1.209.484,1.551.628,1.4.556,1.185,1.481,1.976,2.714a4.085,4.085,0,0,0,5.863,1.018,4.045,4.045,0,0,0-3.63-7.1c-1.7.46-2.054,1.987-3.646,1.482l-1.627-.727s-2.615-1.233-1.184-4.766c0,0,.776-1.877,1.522-3.685.206-.434.732-1.64,3.163-2.431,2.772-.9,5.315-2.865,4.25-7.085s-6.253-4.67-8.728-2.333a5.78,5.78,0,0,0-.954,6.97,5.245,5.245,0,0,1,.233,4.257l-1.373,3.388c-.526,1.264-1.1,1.248-2.4,1.592a3.406,3.406,0,0,0,1.075,6.7Z" transform="translate(-114.327 -176.971)" fill="#0faff0" fill-rule="evenodd"/>
      <path id="Path_11758" data-name="Path 11758" d="M105.748,198.131a15.8,15.8,0,0,0-9.936-10.5c-5.664-2.185-10.888-2.152-12.829-.059-.947,1.022-1.143,3.227.246,5.992,1.536,3.063,1.7,6.008,3.3,8.638,1.873,3.072,6.6,2.708,7.442,2.575,0,0,6.164-.629,8.063-.732,2.843-.155,2.762-1.334,1.73-1.9-.951-.522-1.467-.764-3.2-1.664-.435-.2-1.612-.789-3.985.168-2.706,1.091-5.911,1.223-7.81-2.694s1.787-7.6,5.185-7.395a5.776,5.776,0,0,1,5.214,4.724,5.26,5.26,0,0,0,2.56,3.412s1.514.8,2.4,1.287S106.431,200.257,105.748,198.131Z" transform="translate(-82.231 -182.197)" fill="#0faff0" fill-rule="evenodd"/>
      <path id="Path_11759" data-name="Path 11759" d="M125.99,236.687c1.489,4.21.215,11.654-3.006,12.278-3.328.643-12.31-3.511-12.184-7.964.027-1,.4-2.211,2.236-3.514a36.475,36.475,0,0,1,6.9-3.375c2.131-.9,2.762.487,2.482,1.09-.165.354-.4.82-.4.82-.892,1.409-2.149.468-3.744,1.2a4.049,4.049,0,0,0,1.793,7.781,4.09,4.09,0,0,0,3.839-4.548c-.188-1.453-.951-2.021-.233-3.35.172-.33.31-.594.457-.883A1.049,1.049,0,0,1,125.99,236.687Z" transform="translate(-98.773 -208.969)" fill="#0faff0" fill-rule="evenodd"/>
      <g id="Group_12824" data-name="Group 12824" transform="translate(63.109 33.131)">
        <path id="Path_11760" data-name="Path 11760" d="M228.048,258.945l-.661,2.01h-.855l2.17-6.389h.995l2.182,6.389H231l-.682-2.01Zm2.1-.646h0l-.638-1.838c-.132-.416-.226-.795-.32-1.165h-.031c-.084.37-.188.767-.31,1.156l-.629,1.847Z" transform="translate(-226.532 -254.117)" fill="#0faff0" fill-rule="evenodd"/>
        <path id="Path_11761" data-name="Path 11761" d="M249.676,253.753V259.3c0,.408.009.874.039,1.189h-.749l-.039-.8h-.018a1.682,1.682,0,0,1-1.555.9,2.1,2.1,0,0,1-1.973-2.331,2.194,2.194,0,0,1,2.057-2.465,1.518,1.518,0,0,1,1.383.692h.02v-2.731Zm-.832,4.011h0l-.037-.361a1.226,1.226,0,0,0-1.2-.958c-.864,0-1.376.759-1.376,1.764,0,.939.465,1.7,1.356,1.7a1.264,1.264,0,0,0,1.224-.995l.037-.357Z" transform="translate(-237.446 -253.646)" fill="#0faff0" fill-rule="evenodd"/>
        <path id="Path_11762" data-name="Path 11762" d="M260.277,263.393a2.184,2.184,0,0,1-2.2-2.361,2.244,2.244,0,0,1,2.273-2.437,2.169,2.169,0,0,1,2.209,2.352,2.248,2.248,0,0,1-2.273,2.445Zm.029-.626h0c.8,0,1.394-.748,1.394-1.793,0-.777-.39-1.754-1.375-1.754s-1.4.909-1.4,1.783c0,1,.569,1.763,1.373,1.763Z" transform="translate(-244.797 -256.45)" fill="#0faff0" fill-rule="evenodd"/>
        <path id="Path_11763" data-name="Path 11763" d="M270.69,262.439a2.367,2.367,0,0,0,1.111.322c.594,0,.882-.3.882-.683s-.238-.615-.843-.843c-.836-.3-1.224-.749-1.224-1.3a1.42,1.42,0,0,1,1.582-1.346,2.134,2.134,0,0,1,1.12.285l-.2.594a1.876,1.876,0,0,0-.938-.264c-.492,0-.759.285-.759.626,0,.387.267.559.864.786.786.294,1.2.693,1.2,1.384,0,.815-.634,1.385-1.706,1.385a2.615,2.615,0,0,1-1.289-.322Z" transform="translate(-251.987 -256.444)" fill="#0faff0" fill-rule="evenodd"/>
        <path id="Path_11764" data-name="Path 11764" d="M280.164,261.123a1.465,1.465,0,0,0,1.565,1.592,3.194,3.194,0,0,0,1.272-.227l.15.588a3.731,3.731,0,0,1-1.535.294,2.14,2.14,0,0,1-2.259-2.314,2.238,2.238,0,0,1,2.163-2.484,1.936,1.936,0,0,1,1.883,2.162,2.325,2.325,0,0,1-.027.4l-3.215-.009Zm2.437-.594h0a1.193,1.193,0,0,0-1.148-1.357,1.374,1.374,0,0,0-1.278,1.357Z" transform="translate(-257.119 -256.437)" fill="#0faff0" fill-rule="evenodd"/>
        <path id="Path_11765" data-name="Path 11765" d="M297.615,263.393a2.184,2.184,0,0,1-2.2-2.361,2.245,2.245,0,0,1,2.273-2.437,2.172,2.172,0,0,1,2.211,2.352,2.25,2.25,0,0,1-2.275,2.445Zm.029-.626h0c.8,0,1.394-.748,1.394-1.792,0-.777-.387-1.754-1.376-1.754s-1.4.909-1.4,1.783c0,1,.57,1.763,1.376,1.763Z" transform="translate(-266.418 -256.45)" fill="#0faff0" fill-rule="evenodd"/>
        <path id="Path_11766" data-name="Path 11766" d="M307.882,260.34v-3.954h-.634v-.635h.634v-.219a2.161,2.161,0,0,1,.543-1.6,1.586,1.586,0,0,1,1.106-.426,1.914,1.914,0,0,1,.713.132l-.106.645a1.285,1.285,0,0,0-.54-.1c-.7,0-.892.625-.892,1.326v.247h1.11v.635h-1.1v3.953Z" transform="translate(-273.271 -253.502)" fill="#0faff0" fill-rule="evenodd"/>
        <rect id="Rectangle_714" data-name="Rectangle 714" width="0.834" height="6.731" transform="translate(39.314 0.107)" fill="#0faff0"/>
        <path id="Path_11767" data-name="Path 11767" d="M325.421,255.37a.535.535,0,0,1,.02-1.07.512.512,0,0,1,.53.53.524.524,0,0,1-.539.541Zm-.4,5.432h0v-4.588h.832V260.8Z" transform="translate(-283.492 -253.962)" fill="#0faff0" fill-rule="evenodd"/>
        <path id="Path_11768" data-name="Path 11768" d="M329.773,260.34v-3.954h-.637v-.635h.637v-.219a2.173,2.173,0,0,1,.539-1.6,1.589,1.589,0,0,1,1.11-.426,1.912,1.912,0,0,1,.71.132l-.105.648a1.285,1.285,0,0,0-.54-.1c-.7,0-.891.625-.891,1.326v.247H331.7v.635h-1.1v3.954Z" transform="translate(-285.945 -253.502)" fill="#0faff0" fill-rule="evenodd"/>
        <path id="Path_11769" data-name="Path 11769" d="M336.787,261.123a1.458,1.458,0,0,0,1.561,1.592,3.168,3.168,0,0,0,1.27-.227l.152.588a3.724,3.724,0,0,1-1.535.294,2.14,2.14,0,0,1-2.254-2.314,2.235,2.235,0,0,1,2.16-2.484,1.938,1.938,0,0,1,1.887,2.162,2.049,2.049,0,0,1-.03.4l-3.209-.009Zm2.433-.594h0a1.189,1.189,0,0,0-1.146-1.357,1.377,1.377,0,0,0-1.28,1.357Z" transform="translate(-289.907 -256.437)" fill="#0faff0" fill-rule="evenodd"/>
      </g>
    </g>
  </g>
</svg>
