<svg xmlns="http://www.w3.org/2000/svg" width="133.529" height="85.973" viewBox="0 0 133.529 85.973">
  <g id="Group_15872" data-name="Group 15872" transform="translate(-523.583 -316.874)" opacity="0.5">
    <g id="Group_15870" data-name="Group 15870" transform="translate(-3 -12)">
      <path id="Path_13083" data-name="Path 13083" d="M293.24,101.307l28.489-6.276a4.742,4.742,0,0,1,5.651,3.611l2.77,12.574a9.117,9.117,0,0,1-5.781,10.51l.522,2.368a5.4,5.4,0,0,1-4.115,6.44l-11.753,2.589a5.4,5.4,0,0,1-6.44-4.115l-.522-2.368a9.117,9.117,0,0,1-9.662-7.108l-2.77-12.574A4.743,4.743,0,0,1,293.24,101.307Z" transform="translate(237.065 252)" fill="#434343"/>
      <path id="Path_13084" data-name="Path 13084" d="M305.853,76.98l.191-.042a2.736,2.736,0,0,1,3.26,2.083l3.02,13.711-5.534,1.219L303.77,80.24A2.735,2.735,0,0,1,305.853,76.98Z" transform="translate(240.918 252)" fill="#434343"/>
      <path id="Path_13085" data-name="Path 13085" d="M321.665,80.463l.191-.042a2.736,2.736,0,0,1,3.26,2.083l3.02,13.711L322.6,97.434l-3.02-13.711A2.736,2.736,0,0,1,321.665,80.463Z" transform="translate(209.295 252)" fill="#434343"/>
    </g>
    <g id="Group_15871" data-name="Group 15871" transform="translate(546 348.63)">
      <path id="Path_13086" data-name="Path 13086" d="M192.777,117.468c-.714,12.576,7.856,24.862,20,29.431,13.273,4.994,28.774,1.7,39.211-7.457a44.139,44.139,0,0,0,11.4-15.719,45.629,45.629,0,0,0,2.924-9.589c.488-2.612.663-5.716-.578-8.169a5.561,5.561,0,0,0-6.594-2.754,8.972,8.972,0,0,0-6.114,6.063c-2.129,6.15-.543,13.2,2.587,18.766,7.172,12.754,21.923,18.577,36.379,19.345,1.9.1,3.8.121,5.7.081,2.671-.057,2.67,3.935,0,3.992-16.531.351-33.971-4.688-43.714-18.342-4.3-6.032-6.787-13.616-5.826-20.956.493-3.764,1.915-7.7,4.974-10.257a11.86,11.86,0,0,1,10.423-2.57c8.049,2.156,7.824,11.577,6.345,17.838a49.308,49.308,0,0,1-9.945,19.9,44.418,44.418,0,0,1-42.107,15.4c-15.068-2.848-27.163-15.08-29.034-29.8a28.391,28.391,0,0,1-.177-5.205c.144-2.554,4.293-2.57,4.148,0Z" transform="translate(-188.583 -98.994)" fill="#434343"/>
    </g>
  </g>
</svg>
