<svg xmlns="http://www.w3.org/2000/svg" width="20" height="21" viewBox="0 0 20 21">
  <g id="Group_13431" data-name="Group 13431" transform="translate(13638 5528)">
    <path id="Path_12025" data-name="Path 12025" d="M2,19.333V9.917H1.667a1.605,1.605,0,0,1-1.177-.49A1.605,1.605,0,0,1,0,8.25V5.75A1.6,1.6,0,0,1,.489,4.573a1.6,1.6,0,0,1,1.177-.49H5.4A2.016,2.016,0,0,1,5.146,3.5a2.538,2.538,0,0,1-.079-.633A2.765,2.765,0,0,1,5.9.836,2.764,2.764,0,0,1,7.933,0,2.793,2.793,0,0,1,9.067.237,2.663,2.663,0,0,1,10,.917a2.576,2.576,0,0,1,.933-.684A2.837,2.837,0,0,1,12.067,0,2.764,2.764,0,0,1,14.1.836a2.766,2.766,0,0,1,.836,2.031,2.366,2.366,0,0,1-.083.629,2.411,2.411,0,0,1-.25.588h3.733A1.672,1.672,0,0,1,20,5.75v2.5a1.672,1.672,0,0,1-1.667,1.667H18v9.416A1.671,1.671,0,0,1,16.333,21H3.667a1.6,1.6,0,0,1-1.177-.489A1.606,1.606,0,0,1,2,19.333ZM12.068,1.667a1.179,1.179,0,0,0-1.2,1.2,1.2,1.2,0,1,0,2.4,0,1.179,1.179,0,0,0-1.2-1.2Zm-5.334,1.2a1.2,1.2,0,1,0,2.4,0,1.2,1.2,0,1,0-2.4,0ZM1.667,5.75v2.5h7.5V5.75Zm7.5,13.583V9.917h-5.6v9.416Zm1.667,0h5.6V9.917h-5.6Zm7.5-11.083V5.75h-7.5v2.5Z" transform="translate(-13638 -5528)" fill="#fe4241"/>
    <path id="Path_12028" data-name="Path 12028" d="M0,1.671,5.523,0,8.411,9.219,2.762,10.865Z" transform="translate(-13633.84 -5519.94) rotate(17)" fill="#ffba02"/>
    <path id="Path_12029" data-name="Path 12029" d="M0,1.727,5.535,0l2.8,9.31L2.8,10.841Z" transform="translate(-13626.888 -5519.959) rotate(17)" fill="#ffba02"/>
    <path id="Path_12030" data-name="Path 12030" d="M0,0Z" transform="translate(-13627.264 -5519.814) rotate(17)" fill="none" stroke="#707070" stroke-width="1"/>
    <path id="Path_12031" data-name="Path 12031" d="M0,2.311,7.405,0l.772,2.569L.694,4.8Z" transform="translate(-13626.714 -5524.475) rotate(17)" fill="#ffba02"/>
    <path id="Path_12032" data-name="Path 12032" d="M0,2.351,7.345,0,8.09,2.565.788,4.771Z" transform="translate(-13635.628 -5524.479) rotate(17)" fill="#ffba02"/>
    <path id="Path_12033" data-name="Path 12033" d="M5.577,0,0,1.727l.608,2L6.2,2.123Z" transform="translate(-13626.918 -5519.792) rotate(17)" fill="#fd8c00"/>
    <path id="Path_12034" data-name="Path 12034" d="M5.508,0,0,1.741.641,3.8,6.234,2.2Z" transform="translate(-13633.85 -5519.779) rotate(17)" fill="#fd8c00"/>
    <path id="Path_12035" data-name="Path 12035" d="M7.44,0,0,2.338.313,3.424,7.786,1.105Z" transform="translate(-13626.738 -5524.47) rotate(17)" fill="#fd8c00"/>
    <path id="Path_12036" data-name="Path 12036" d="M7.328,0,0,2.324.313,3.41,7.7,1.106Z" transform="translate(-13635.631 -5524.455) rotate(17)" fill="#fd8c00"/>
  </g>
</svg>
