<svg id="chat" xmlns="http://www.w3.org/2000/svg" width="24" height="22.461" viewBox="0 0 24 22.461">
  <path id="Path_11548" data-name="Path 11548" d="M6.678,26.31a.8.8,0,0,1-.81-.81V22.861A6.476,6.476,0,0,1,4.832,10.718.81.81,0,1,1,5.5,12.191a4.857,4.857,0,0,0,1.3,9.229.81.81,0,0,1,.7.81V23.8l2.558-2.129a.81.81,0,0,1,.518-.219h1.781a4.809,4.809,0,0,0,3.473-1.473.813.813,0,0,1,1.166,1.133,6.476,6.476,0,0,1-4.639,1.959h-1.49L7.2,26.124A.81.81,0,0,1,6.678,26.31Z" transform="translate(-1.059 -3.849)" fill="teal"/>
  <g id="Group_12518" data-name="Group 12518" transform="translate(-1142.787 -13)">
    <path id="Path_11547" data-name="Path 11547" d="M21.143,18.191A.81.81,0,0,1,20.625,18l-3.659-3.052h-1.49A6.476,6.476,0,1,1,15.476,2h4.857a6.476,6.476,0,0,1,1.619,12.742v2.639a.8.8,0,0,1-.81.81ZM15.476,3.619a4.857,4.857,0,1,0,0,9.715h1.781a.81.81,0,0,1,.518.186l2.558,2.129V14.078a.81.81,0,0,1,.7-.81,4.857,4.857,0,0,0-.7-9.65Z" transform="translate(1139.995 11)" fill="teal"/>
    <path id="Path_11590" data-name="Path 11590" d="M2763.442-10408.548l1.264-1.658,6.4-.553h2.765l2.291,1.343,1.5,4.106-.553,2.449-2.212,2.133-2.37,1.342v1.58l-3.239-2.922-1.343.79-2.527-.79-2.923-2.133v-3.871Z" transform="translate(-1612 10425)" fill="teal"/>
    <rect id="Rectangle_558" data-name="Rectangle 558" width="1.619" height="1.619" transform="translate(1157.082 19.099)" fill="#fff"/>
    <rect id="Rectangle_559" data-name="Rectangle 559" width="1.619" height="1.619" transform="translate(1153.073 19.099)" fill="#fff"/>
    <rect id="Rectangle_560" data-name="Rectangle 560" width="1.619" height="1.619" transform="translate(1161.09 19.099)" fill="#fff"/>
  </g>
</svg>
