<svg xmlns="http://www.w3.org/2000/svg" width="19" height="17" viewBox="0 0 19 17">
  <path id="Path_11924" data-name="Path 11924" d="M158.389-696.56l-5.067,5.1a1.162,1.162,0,0,0-.35.88,1.251,1.251,0,0,0,.374.88,1.2,1.2,0,0,0,.886.364,1.2,1.2,0,0,0,.886-.364l7.189-7.243a1.208,1.208,0,0,0,.281-.415,1.305,1.305,0,0,0,.081-.465,1.305,1.305,0,0,0-.081-.465,1.2,1.2,0,0,0-.281-.415l-7.214-7.268a1.2,1.2,0,0,0-.886-.364,1.2,1.2,0,0,0-.886.364,1.219,1.219,0,0,0-.362.893,1.219,1.219,0,0,0,.362.893l5.067,5.105H144.918a1.205,1.205,0,0,0-.892.358,1.224,1.224,0,0,0-.356.9,1.224,1.224,0,0,0,.356.9,1.205,1.205,0,0,0,.892.358Z" transform="translate(-143.67 706.33)" fill="#fafeff"/>
</svg>
