<svg xmlns="http://www.w3.org/2000/svg" width="20" height="20.019" viewBox="0 0 20 20.019">
  <path id="Path_11739" data-name="Path 11739" d="M130.065-819.981a9.752,9.752,0,0,1-3.916-.792,10.292,10.292,0,0,1-3.2-2.15,10.1,10.1,0,0,1-2.16-3.188,9.749,9.749,0,0,1-.792-3.916,9.619,9.619,0,0,1,.792-3.9,10.046,10.046,0,0,1,2.16-3.16,10.238,10.238,0,0,1,3.2-2.131,9.848,9.848,0,0,1,3.916-.783,9.614,9.614,0,0,1,4.249.973,10.266,10.266,0,0,1,3.443,2.7v-2.836h1.853v6.08h-6.1v-1.854h2.966a9.132,9.132,0,0,0-2.855-2.336,7.543,7.543,0,0,0-3.559-.871,8.023,8.023,0,0,0-5.806,2.34,7.679,7.679,0,0,0-2.405,5.723,7.986,7.986,0,0,0,2.386,5.843,7.894,7.894,0,0,0,5.825,2.405,7.749,7.749,0,0,0,5.612-2.261,7.9,7.9,0,0,0,2.451-5.542H140a9.7,9.7,0,0,1-3.017,6.854A9.56,9.56,0,0,1,130.065-819.981Zm3.3-5.431-4.263-4.226v-5.969h1.854v5.208l3.726,3.67Z" transform="translate(-120 840)" fill="#fafeff"/>
</svg>
