<svg xmlns="http://www.w3.org/2000/svg" width="20" height="22" viewBox="0 0 20 22">
  <g id="Group_13593" data-name="Group 13593" transform="translate(-21 -686)">
    <path id="Path_12094" data-name="Path 12094" d="M-9217.407-9634.559l-7.524,4.869,7.932,13.854,7.746-5.295Z" transform="translate(9248 10322)" fill="none" stroke="#0f76ba" stroke-width="1"/>
    <path id="Path_12095" data-name="Path 12095" d="M-9209.15-9629.811l-16.049,9.211,8.309-13.69Z" transform="translate(9248 10322)" fill="none" stroke="#0f76ba" stroke-width="1"/>
    <path id="Path_12096" data-name="Path 12096" d="M-9224.121-9629.49l14.325,8.174" transform="translate(9248 10322)" fill="none" stroke="#0f76ba" stroke-width="1"/>
    <path id="Path_12097" data-name="Path 12097" d="M-9208.723-9629.883l-8.194,13.768" transform="translate(9248 10322)" fill="none" stroke="#0f76ba" stroke-width="1"/>
    <path id="Path_12098" data-name="Path 12098" d="M-9224.932-9620.6l7.62,4.422" transform="translate(9248 10322)" fill="none" stroke="#0f76ba" stroke-width="1"/>
    <circle id="Ellipse_55" data-name="Ellipse 55" cx="2" cy="2" r="2" transform="translate(29 686)" fill="#0f76ba"/>
    <circle id="Ellipse_56" data-name="Ellipse 56" cx="2" cy="2" r="2" transform="translate(37 690)" fill="#0f76ba"/>
    <circle id="Ellipse_57" data-name="Ellipse 57" cx="2" cy="2" r="2" transform="translate(37 699)" fill="#0f76ba"/>
    <circle id="Ellipse_58" data-name="Ellipse 58" cx="2" cy="2" r="2" transform="translate(21 699)" fill="#0f76ba"/>
    <circle id="Ellipse_59" data-name="Ellipse 59" cx="2" cy="2" r="2" transform="translate(21 690)" fill="#0f76ba"/>
    <circle id="Ellipse_60" data-name="Ellipse 60" cx="2" cy="2" r="2" transform="translate(29 704)" fill="#0f76ba"/>
  </g>
</svg>
