<svg xmlns="http://www.w3.org/2000/svg" width="18" height="14.883" viewBox="0 0 18 14.883">
  <path id="Path_11696" data-name="Path 11696" d="M32.59-833.247v-1.681h18v1.681Zm2.621-2.486a1.764,1.764,0,0,1-1.3-.535,1.764,1.764,0,0,1-.535-1.3V-846.3a1.764,1.764,0,0,1,.535-1.3,1.764,1.764,0,0,1,1.3-.535H47.969a1.764,1.764,0,0,1,1.3.535,1.764,1.764,0,0,1,.535,1.3v8.735a1.764,1.764,0,0,1-.535,1.3,1.764,1.764,0,0,1-1.3.535Zm0-1.831H47.969V-846.3H35.211Zm0,0v0Z" transform="translate(-32.59 848.13)" fill="#4f54a4"/>
</svg>
