<svg xmlns="http://www.w3.org/2000/svg" width="18" height="18.086" viewBox="0 0 18 18.086">
  <g id="_843786_whatsapp_icon" data-name="843786_whatsapp_icon" transform="translate(-4.112 -3.489)">
    <path id="Path_11689" data-name="Path 11689" d="M19.489,6.117A8.964,8.964,0,0,0,5.383,16.931L4.112,21.576l4.751-1.246a8.955,8.955,0,0,0,4.283,1.091h0a8.966,8.966,0,0,0,6.34-15.3Zm-6.34,13.789h0a7.438,7.438,0,0,1-3.791-1.038l-.272-.161-2.819.74L7.016,16.7l-.177-.282a7.449,7.449,0,1,1,6.31,3.491Z" fill="#4f54a4" fill-rule="evenodd"/>
    <path id="Path_11690" data-name="Path 11690" d="M25.117,22.732c-.225-.112-1.331-.651-1.537-.725s-.356-.112-.506.112-.581.725-.712.874-.263.167-.487.056a6.158,6.158,0,0,1-1.809-1.106A6.727,6.727,0,0,1,18.812,20.4c-.131-.223-.014-.344.1-.455s.225-.26.338-.39a1.519,1.519,0,0,0,.225-.372.407.407,0,0,0-.019-.39c-.056-.112-.506-1.208-.694-1.655s-.368-.376-.506-.383-.281-.008-.431-.008a.83.83,0,0,0-.6.279,2.49,2.49,0,0,0-.788,1.859,4.313,4.313,0,0,0,.919,2.305A9.992,9.992,0,0,0,21.2,24.554a13,13,0,0,0,1.283.469,3.112,3.112,0,0,0,1.417.088,2.317,2.317,0,0,0,1.519-1.06,1.846,1.846,0,0,0,.131-1.06C25.492,22.9,25.342,22.844,25.117,22.732Z" transform="translate(-7.862 -8.414)" fill="#4f54a4" fill-rule="evenodd"/>
  </g>
</svg>
