<svg xmlns="http://www.w3.org/2000/svg" width="17" height="18" viewBox="0 0 17 18">
  <g id="Address_location" transform="translate(-81 -74)" opacity="0.8">
    <path id="Path_11296" data-name="Path 11296" d="M92.993,330.95,90.6,334.394a1.323,1.323,0,0,1-2.2,0l-2.395-3.444c-2.952.448-5.007,1.444-5.007,2.6,0,1.577,3.806,2.855,8.5,2.855s8.5-1.278,8.5-2.855C98,332.394,95.945,331.4,92.993,330.95Z" transform="translate(0 -244.408)" fill="#0faeef"/>
    <path id="Path_11297" data-name="Path 11297" d="M147.174,89.7l4.363-6.446a6.154,6.154,0,0,0-.746-7.758,5.115,5.115,0,0,0-7.234,0,6.154,6.154,0,0,0-.746,7.758Zm0-12.464a2.592,2.592,0,1,1-2.4,2.585A2.5,2.5,0,0,1,147.174,77.239Z" transform="translate(-57.674 0)" fill="#0faeef"/>
  </g>
</svg>
