<svg xmlns="http://www.w3.org/2000/svg" width="14" height="14" viewBox="0 0 14 14">
  <path id="Path_12247" data-name="Path 12247" d="M123.344-826v-1.3h3.007v-2.722a4.127,4.127,0,0,1-1.812-.872,3.52,3.52,0,0,1-1.118-1.643,3.847,3.847,0,0,1-2.434-1.2,3.476,3.476,0,0,1-.988-2.479v-.83a1.249,1.249,0,0,1,.379-.917,1.249,1.249,0,0,1,.917-.379h1.867V-840h7.674v1.659H132.7a1.249,1.249,0,0,1,.917.379,1.249,1.249,0,0,1,.379.917v.83a3.476,3.476,0,0,1-.988,2.479,3.847,3.847,0,0,1-2.434,1.2,3.52,3.52,0,0,1-1.118,1.643,4.128,4.128,0,0,1-1.812.872v2.722h3.007v1.3Zm-.181-7.907v-3.137H121.3v.83a2.22,2.22,0,0,0,.525,1.462A2.534,2.534,0,0,0,123.163-833.907ZM127-831.25a2.441,2.441,0,0,0,1.8-.745,2.473,2.473,0,0,0,.739-1.808v-4.9h-5.082v4.9A2.473,2.473,0,0,0,125.2-832,2.441,2.441,0,0,0,127-831.25Zm3.837-2.657a2.534,2.534,0,0,0,1.342-.846,2.22,2.22,0,0,0,.525-1.462v-.83h-1.867ZM127-834.983Z" transform="translate(-120 840)" fill="teal"/>
</svg>
