<svg xmlns="http://www.w3.org/2000/svg" width="19" height="17" viewBox="0 0 19 17">
  <path id="_8541773_boxes_packages_icon" data-name="8541773_boxes_packages_icon" d="M17.5,9H15v3l-1-.666L13,12V9H10.5a.5.5,0,0,0-.5.5v6a.5.5,0,0,0,.5.5h7a.5.5,0,0,0,.5-.5v-6A.5.5,0,0,0,17.5,9ZM5.5,7h7a.5.5,0,0,0,.5-.5V.5a.5.5,0,0,0-.5-.5H10V3L9,2.334,8,3V0H5.5A.5.5,0,0,0,5,.5v6A.5.5,0,0,0,5.5,7Zm2,2H5v3l-1-.666L3,12V9H.5a.5.5,0,0,0-.5.5v6a.5.5,0,0,0,.5.5h7a.5.5,0,0,0,.5-.5v-6A.5.5,0,0,0,7.5,9Z" transform="translate(0.5 0.5)" fill="none" stroke="#41428e" stroke-width="1"/>
</svg>
