<svg xmlns="http://www.w3.org/2000/svg" width="13" height="14.444" viewBox="0 0 13 14.444">
  <path id="Path_11811" data-name="Path 11811" d="M121.444-865.556a1.391,1.391,0,0,1-1.02-.424A1.391,1.391,0,0,1,120-867v-10.111a1.391,1.391,0,0,1,.424-1.02,1.39,1.39,0,0,1,1.02-.424h.722v-.722a.7.7,0,0,1,.208-.515.7.7,0,0,1,.515-.208.7.7,0,0,1,.515.208.7.7,0,0,1,.208.515v.722h5.778v-.722a.7.7,0,0,1,.208-.515.7.7,0,0,1,.515-.208.7.7,0,0,1,.515.208.7.7,0,0,1,.208.515v.722h.722a1.39,1.39,0,0,1,1.02.424,1.391,1.391,0,0,1,.424,1.02V-867a1.391,1.391,0,0,1-.424,1.02,1.391,1.391,0,0,1-1.02.424Zm0-1.445h10.111v-7.222H121.444Zm0-8.666h10.111v-1.445H121.444Zm0,0v0Zm5.056,4.333a.7.7,0,0,1-.515-.208.7.7,0,0,1-.208-.514.7.7,0,0,1,.208-.515.7.7,0,0,1,.515-.208.7.7,0,0,1,.515.208.7.7,0,0,1,.208.515.7.7,0,0,1-.208.514A.7.7,0,0,1,126.5-871.333Zm-2.889,0a.7.7,0,0,1-.515-.208.7.7,0,0,1-.208-.514.7.7,0,0,1,.208-.515.7.7,0,0,1,.515-.208.7.7,0,0,1,.515.208.7.7,0,0,1,.208.515.7.7,0,0,1-.208.514A.7.7,0,0,1,123.611-871.333Zm5.778,0a.7.7,0,0,1-.515-.208.7.7,0,0,1-.208-.514.7.7,0,0,1,.208-.515.7.7,0,0,1,.515-.208.7.7,0,0,1,.515.208.7.7,0,0,1,.208.515.7.7,0,0,1-.208.514A.7.7,0,0,1,129.389-871.333Zm-2.889,2.889a.7.7,0,0,1-.515-.208.7.7,0,0,1-.208-.514.7.7,0,0,1,.208-.515.7.7,0,0,1,.515-.208.7.7,0,0,1,.515.208.7.7,0,0,1,.208.515.7.7,0,0,1-.208.514A.7.7,0,0,1,126.5-868.444Zm-2.889,0a.7.7,0,0,1-.515-.208.7.7,0,0,1-.208-.514.7.7,0,0,1,.208-.515.7.7,0,0,1,.515-.208.7.7,0,0,1,.515.208.7.7,0,0,1,.208.515.7.7,0,0,1-.208.514A.7.7,0,0,1,123.611-868.444Zm5.778,0a.7.7,0,0,1-.515-.208.7.7,0,0,1-.208-.514.7.7,0,0,1,.208-.515.7.7,0,0,1,.515-.208.7.7,0,0,1,.515.208.7.7,0,0,1,.208.515.7.7,0,0,1-.208.514A.7.7,0,0,1,129.389-868.444Z" transform="translate(-120 880)" fill="#4f54a4"/>
</svg>
