<svg xmlns="http://www.w3.org/2000/svg" width="15" height="15" viewBox="0 0 15 15">
  <path id="Path_12248" data-name="Path 12248" d="M87.5-871.625l2.338,2.337a.6.6,0,0,0,.437.181.6.6,0,0,0,.437-.181.6.6,0,0,0,.181-.437.6.6,0,0,0-.181-.437L88.375-872.5l2.337-2.338a.6.6,0,0,0,.181-.437.6.6,0,0,0-.181-.437.6.6,0,0,0-.437-.181.6.6,0,0,0-.437.181L87.5-873.375l-2.338-2.337a.6.6,0,0,0-.437-.181.6.6,0,0,0-.437.181.6.6,0,0,0-.181.437.6.6,0,0,0,.181.438l2.337,2.338-2.337,2.338a.6.6,0,0,0-.181.438.6.6,0,0,0,.181.437.6.6,0,0,0,.437.181.6.6,0,0,0,.437-.181Zm0,6.625a7.273,7.273,0,0,1-2.912-.591A7.6,7.6,0,0,1,82.2-867.2a7.6,7.6,0,0,1-1.609-2.388A7.273,7.273,0,0,1,80-872.5a7.3,7.3,0,0,1,.591-2.925,7.523,7.523,0,0,1,1.609-2.381,7.651,7.651,0,0,1,2.388-1.6A7.271,7.271,0,0,1,87.5-880a7.3,7.3,0,0,1,2.925.591,7.574,7.574,0,0,1,2.381,1.6,7.575,7.575,0,0,1,1.6,2.381A7.3,7.3,0,0,1,95-872.5a7.273,7.273,0,0,1-.591,2.912,7.651,7.651,0,0,1-1.6,2.388,7.521,7.521,0,0,1-2.381,1.609A7.3,7.3,0,0,1,87.5-865Zm0-1.25a6.02,6.02,0,0,0,4.431-1.825A6.036,6.036,0,0,0,93.75-872.5a6.03,6.03,0,0,0-1.819-4.431A6.03,6.03,0,0,0,87.5-878.75a6.036,6.036,0,0,0-4.425,1.819A6.02,6.02,0,0,0,81.25-872.5a6.025,6.025,0,0,0,1.825,4.425A6.026,6.026,0,0,0,87.5-866.25ZM87.5-872.5Z" transform="translate(-80 880)" fill="#d20c0c"/>
</svg>
