<svg xmlns="http://www.w3.org/2000/svg" width="14.4" height="18" viewBox="0 0 14.4 18">
  <path id="Path_12431" data-name="Path 12431" d="M164.335-865.75h5.73a.724.724,0,0,0,.534-.216.73.73,0,0,0,.216-.536.72.72,0,0,0-.216-.533.729.729,0,0,0-.534-.214h-5.73a.724.724,0,0,0-.534.216.73.73,0,0,0-.216.536.721.721,0,0,0,.216.534A.729.729,0,0,0,164.335-865.75Zm0-3.75h5.73a.724.724,0,0,0,.534-.216.729.729,0,0,0,.216-.536.721.721,0,0,0-.216-.534.729.729,0,0,0-.534-.214h-5.73a.724.724,0,0,0-.534.216.729.729,0,0,0-.216.536.721.721,0,0,0,.216.534A.729.729,0,0,0,164.335-869.5ZM161.5-862a1.441,1.441,0,0,1-1.054-.446A1.442,1.442,0,0,1,160-863.5v-15a1.442,1.442,0,0,1,.446-1.054A1.442,1.442,0,0,1,161.5-880h7.192a1.461,1.461,0,0,1,.585.12,1.531,1.531,0,0,1,.48.323l4.2,4.2a1.53,1.53,0,0,1,.323.48,1.462,1.462,0,0,1,.12.585V-863.5a1.442,1.442,0,0,1-.446,1.054A1.442,1.442,0,0,1,172.9-862Zm7.065-12.96v-3.54H161.5v15h11.4v-10.71h-3.585a.725.725,0,0,1-.534-.216A.726.726,0,0,1,168.565-874.96ZM161.5-878.5v0Z" transform="translate(-160 880)" fill="#4f54a4"/>
</svg>
