<svg xmlns="http://www.w3.org/2000/svg" width="14.01" height="13.181" viewBox="0 0 14.01 13.181">
  <path id="Path_12549" data-name="Path 12549" d="M93.426-866.819a.577.577,0,0,1-.21-.041.579.579,0,0,1-.2-.134l-1.8-1.8H83.97a1.126,1.126,0,0,1-.826-.341,1.125,1.125,0,0,1-.341-.826v-1.167h7.705a1.125,1.125,0,0,0,.826-.342,1.125,1.125,0,0,0,.341-.826v-4.9h1.167a1.126,1.126,0,0,1,.826.341,1.125,1.125,0,0,1,.341.826v8.622a.545.545,0,0,1-.181.429A.592.592,0,0,1,93.426-866.819ZM80.584-870.31a.593.593,0,0,1-.4-.16A.545.545,0,0,1,80-870.9v-7.933a1.125,1.125,0,0,1,.341-.826,1.125,1.125,0,0,1,.826-.341H89.34a1.125,1.125,0,0,1,.826.341,1.125,1.125,0,0,1,.341.826v5.37a1.125,1.125,0,0,1-.341.826,1.125,1.125,0,0,1-.826.341H82.8l-1.81,1.81a.58.58,0,0,1-.2.134A.576.576,0,0,1,80.584-870.31Z" transform="translate(-80 880)" fill="#7b7b7b"/>
</svg>
