<svg xmlns="http://www.w3.org/2000/svg" width="14" height="13.02" viewBox="0 0 14 13.02">
  <path id="Path_11619" data-name="Path 11619" d="M93.3-866.98a.659.659,0,0,1-.262-.052.728.728,0,0,1-.228-.157L91.2-868.8h-7a1.348,1.348,0,0,1-.989-.411,1.348,1.348,0,0,1-.411-.989v-.7h7.7a1.348,1.348,0,0,0,.989-.411,1.348,1.348,0,0,0,.411-.989v-4.9h.7a1.348,1.348,0,0,1,.989.411A1.348,1.348,0,0,1,94-875.8v8.1a.684.684,0,0,1-.21.516A.686.686,0,0,1,93.3-866.98Zm-11.9-5.9.822-.823H89.1v-4.9H81.4Zm-.7,2.4a.686.686,0,0,1-.49-.2A.683.683,0,0,1,80-871.2v-7.4a1.348,1.348,0,0,1,.411-.989A1.348,1.348,0,0,1,81.4-880h7.7a1.348,1.348,0,0,1,.989.411,1.348,1.348,0,0,1,.411.989v4.9a1.347,1.347,0,0,1-.411.989,1.347,1.347,0,0,1-.989.411H82.8l-1.61,1.61a.726.726,0,0,1-.228.157A.659.659,0,0,1,80.7-870.48Zm.7-3.22v0Z" transform="translate(-80 880)" fill="#008080"/>
</svg>
