<svg xmlns="http://www.w3.org/2000/svg" width="15.3" height="18" viewBox="0 0 15.3 18">
  <path id="Path_12497" data-name="Path 12497" d="M124.5-865a1.44,1.44,0,0,1-1.054-.446A1.441,1.441,0,0,1,123-866.5v-12a1.441,1.441,0,0,1,.446-1.054A1.441,1.441,0,0,1,124.5-880h9.3a1.441,1.441,0,0,1,1.054.446,1.441,1.441,0,0,1,.446,1.054v12a1.441,1.441,0,0,1-.446,1.054A1.441,1.441,0,0,1,133.8-865Zm0-1.5h9.3v-12h-9.3Zm-3,4.5a1.442,1.442,0,0,1-1.054-.446A1.442,1.442,0,0,1,120-863.5v-12.75a.724.724,0,0,1,.216-.534.729.729,0,0,1,.536-.216.721.721,0,0,1,.534.216.729.729,0,0,1,.214.534v12.75h10.05a.724.724,0,0,1,.534.216.729.729,0,0,1,.216.536.721.721,0,0,1-.216.534.729.729,0,0,1-.534.214Zm3-4.5v0Z" transform="translate(-120 880)" fill="#ccc"/>
</svg>
