<svg xmlns="http://www.w3.org/2000/svg" width="22" height="22" viewBox="0 0 22 22">
  <path id="Path_12022" data-name="Path 12022" d="M89.405-866.672l-2.585-2.585a.9.9,0,0,0-.66-.266.927.927,0,0,0-.678.284.9.9,0,0,0-.266.66.9.9,0,0,0,.266.66l3.282,3.3a.88.88,0,0,0,.642.275.88.88,0,0,0,.642-.275l6.453-6.453a.927.927,0,0,0,.284-.678.927.927,0,0,0-.284-.678.938.938,0,0,0-.688-.257.939.939,0,0,0-.669.275ZM91-858a10.666,10.666,0,0,1-4.272-.866,11.144,11.144,0,0,1-3.5-2.36,11.145,11.145,0,0,1-2.36-3.5A10.666,10.666,0,0,1,80-869a10.711,10.711,0,0,1,.866-4.29,11.032,11.032,0,0,1,2.36-3.492,11.221,11.221,0,0,1,3.5-2.351A10.666,10.666,0,0,1,91-880a10.711,10.711,0,0,1,4.29.866,11.108,11.108,0,0,1,3.493,2.351,11.108,11.108,0,0,1,2.351,3.492A10.711,10.711,0,0,1,102-869a10.665,10.665,0,0,1-.866,4.272,11.223,11.223,0,0,1-2.351,3.5,11.032,11.032,0,0,1-3.493,2.36A10.711,10.711,0,0,1,91-858Zm0-1.833a8.829,8.829,0,0,0,6.5-2.677,8.853,8.853,0,0,0,2.667-6.49,8.844,8.844,0,0,0-2.667-6.5,8.844,8.844,0,0,0-6.5-2.667,8.853,8.853,0,0,0-6.49,2.667,8.829,8.829,0,0,0-2.677,6.5,8.838,8.838,0,0,0,2.677,6.49A8.838,8.838,0,0,0,91-859.833ZM91-869Z" transform="translate(-80 880)" fill="#28a745"/>
</svg>
