<svg xmlns="http://www.w3.org/2000/svg" width="13.402" height="7.873" viewBox="0 0 13.402 7.873">
  <path id="Path_11664" data-name="Path 11664" d="M342.018-696.3l-4.688-4.688a1.14,1.14,0,0,1-.331-.841,1.14,1.14,0,0,1,.331-.841,1.14,1.14,0,0,1,.841-.331,1.14,1.14,0,0,1,.841.331l5.529,5.529a1.055,1.055,0,0,1,.255.391,1.33,1.33,0,0,1,.075.451,1.33,1.33,0,0,1-.075.451,1.055,1.055,0,0,1-.255.391l-5.529,5.529a1.14,1.14,0,0,1-.841.331,1.14,1.14,0,0,1-.841-.331,1.14,1.14,0,0,1-.331-.841,1.14,1.14,0,0,1,.331-.841Z" transform="translate(-689.598 -337) rotate(90)" fill="#cccccc"/>
</svg>
