<svg xmlns="http://www.w3.org/2000/svg" width="20" height="19.993" viewBox="0 0 20 19.993">
  <path id="Path_11699" data-name="Path 11699" d="M114.335-830.608h1.554l10.176-10.176-1.541-1.548-10.189,10.189Zm-2.465,2.471v-5.032l14.325-14.3a2.45,2.45,0,0,1,.752-.488,2.262,2.262,0,0,1,.867-.169,2.35,2.35,0,0,1,.874.169,2.109,2.109,0,0,1,.751.508l1.773,1.78a1.936,1.936,0,0,1,.5.748,2.471,2.471,0,0,1,.159.863,2.417,2.417,0,0,1-.159.87,2.145,2.145,0,0,1-.5.755l-14.3,14.3Zm17.457-15.924-1.527-1.534Zm-4.043,2.509-.76-.781,1.541,1.548Z" transform="translate(-111.87 848.13)" fill="#4f54a4"/>
</svg>
