<svg xmlns="http://www.w3.org/2000/svg" width="18" height="14.472" viewBox="0 0 18 14.472">
  <path id="Path_11691" data-name="Path 11691" d="M73.877-793.658a1.934,1.934,0,0,1-1.42-.587,1.934,1.934,0,0,1-.587-1.42v-10.458a1.934,1.934,0,0,1,.587-1.42,1.934,1.934,0,0,1,1.42-.587H87.863a1.934,1.934,0,0,1,1.42.587,1.934,1.934,0,0,1,.587,1.42v10.458a1.934,1.934,0,0,1-.587,1.42,1.934,1.934,0,0,1-1.42.587Zm6.993-6.127-6.993-4.41v8.531H87.863V-804.2Zm0-1.928,6.993-4.41H73.877ZM73.877-804.2v0Z" transform="translate(-71.87 808.13)" fill="#4f54a4"/>
</svg>
