<svg xmlns="http://www.w3.org/2000/svg" width="19.197" height="11.998" viewBox="0 0 19.197 11.998">
  <path id="Path_11647" data-name="Path 11647" d="M282.4-780.8a2.311,2.311,0,0,1-1.695-.7,2.31,2.31,0,0,1-.7-1.695,2.311,2.311,0,0,1,.7-1.695,2.311,2.311,0,0,1,1.695-.7,2.311,2.311,0,0,1,1.695.7,2.311,2.311,0,0,1,.7,1.695,2.31,2.31,0,0,1-.7,1.695A2.311,2.311,0,0,1,282.4-780.8Zm7.2,0a2.311,2.311,0,0,1-1.695-.7,2.31,2.31,0,0,1-.7-1.695,2.311,2.311,0,0,1,.7-1.695,2.311,2.311,0,0,1,1.695-.7,2.311,2.311,0,0,1,1.695.7,2.311,2.311,0,0,1,.7,1.695,2.311,2.311,0,0,1-.7,1.695A2.311,2.311,0,0,1,289.6-780.8Zm-7.2-7.2a2.311,2.311,0,0,1-1.695-.7,2.31,2.31,0,0,1-.7-1.695,2.31,2.31,0,0,1,.7-1.695,2.31,2.31,0,0,1,1.695-.7,2.31,2.31,0,0,1,1.695.7,2.31,2.31,0,0,1,.7,1.695,2.31,2.31,0,0,1-.7,1.695A2.311,2.311,0,0,1,282.4-788Zm7.2,0a2.311,2.311,0,0,1-1.695-.7,2.31,2.31,0,0,1-.7-1.695,2.31,2.31,0,0,1,.7-1.695,2.31,2.31,0,0,1,1.695-.7,2.31,2.31,0,0,1,1.695.7,2.311,2.311,0,0,1,.7,1.695,2.311,2.311,0,0,1-.7,1.695A2.311,2.311,0,0,1,289.6-788Zm-7.2-7.2a2.311,2.311,0,0,1-1.695-.7,2.31,2.31,0,0,1-.7-1.695,2.311,2.311,0,0,1,.7-1.695,2.311,2.311,0,0,1,1.695-.7,2.311,2.311,0,0,1,1.695.7,2.311,2.311,0,0,1,.7,1.695,2.31,2.31,0,0,1-.7,1.695A2.311,2.311,0,0,1,282.4-795.2Zm7.2,0a2.311,2.311,0,0,1-1.695-.7,2.31,2.31,0,0,1-.7-1.695,2.311,2.311,0,0,1,.7-1.695,2.311,2.311,0,0,1,1.695-.7,2.311,2.311,0,0,1,1.695.7,2.311,2.311,0,0,1,.7,1.695,2.311,2.311,0,0,1-.7,1.695A2.311,2.311,0,0,1,289.6-795.2Z" transform="translate(-780.803 -280) rotate(90)" fill="#555"/>
</svg>
