<svg xmlns="http://www.w3.org/2000/svg" width="17" height="12.299" viewBox="0 0 17 12.299">
  <path id="_1181190_email_gmail_google_mail_icon" data-name="1181190_email_gmail_google_mail_icon" d="M20.309,11.122h0v-.4a1.4,1.4,0,0,0-1.393-1.393H4.7l.005,0-.005,0a1.4,1.4,0,0,0-1.393,1.393v9.514A1.4,1.4,0,0,0,4.7,21.625H18.378c1.461-.017,1.9-.378,1.933-1.391Zm-2.43-1.455-6.091,4.487L5.736,9.667ZM5.544,13.153l5.642,3.886.006,0L5.541,20.973Zm.146,8.131,5.8-4.033.1.071a.341.341,0,0,0,.195.061,1.28,1.28,0,0,0,.3-.133l5.8,4.034H5.69Zm12.344-.314-5.648-3.927,3.15-2.17,2.5-1.721Z" transform="translate(-3.311 -9.326)" fill="#d20c0c"/>
</svg>
