<svg xmlns="http://www.w3.org/2000/svg" width="12" height="10.8" viewBox="0 0 12 10.8">
  <path id="Path_11636" data-name="Path 11636" d="M48.236-842.273l-.791-.791a1.364,1.364,0,0,0-.368-1.2,1.31,1.31,0,0,0-1.268-.436l-.791-.791a2.321,2.321,0,0,1,.47-.164,2.3,2.3,0,0,1,.511-.055,2.367,2.367,0,0,1,1.739.716,2.367,2.367,0,0,1,.716,1.739,2.29,2.29,0,0,1-.055.511A2.312,2.312,0,0,1,48.236-842.273Zm1.745,1.718-.791-.764a5.976,5.976,0,0,0,.92-.866,4.854,4.854,0,0,0,.689-1.07,5.362,5.362,0,0,0-1.957-2.189A5.186,5.186,0,0,0,46-846.254a5.488,5.488,0,0,0-.777.055,5.24,5.24,0,0,0-.75.164l-.845-.846a6.04,6.04,0,0,1,1.145-.348A6.308,6.308,0,0,1,46-847.345a6.194,6.194,0,0,1,3.668,1.139A6.492,6.492,0,0,1,52-843.255a6.381,6.381,0,0,1-.825,1.493A6,6,0,0,1,49.982-840.554Zm.273,3.355-2.291-2.264a6.531,6.531,0,0,1-.961.225,6.541,6.541,0,0,1-1,.075,6.193,6.193,0,0,1-3.668-1.139A6.492,6.492,0,0,1,40-843.255a6.465,6.465,0,0,1,.723-1.343,6.278,6.278,0,0,1,1-1.111l-1.5-1.527.764-.764,10.036,10.036Zm-7.773-7.746a5.86,5.86,0,0,0-.723.777,4.919,4.919,0,0,0-.559.914,5.361,5.361,0,0,0,1.957,2.189,5.185,5.185,0,0,0,2.843.811,4.077,4.077,0,0,0,.532-.034q.259-.034.532-.075l-.491-.518a2.493,2.493,0,0,1-.286.061,1.917,1.917,0,0,1-.286.02,2.367,2.367,0,0,1-1.739-.716,2.367,2.367,0,0,1-.716-1.739,1.929,1.929,0,0,1,.02-.286,2.5,2.5,0,0,1,.061-.286ZM46.832-843.677ZM44.773-842.654Z" transform="translate(-40 848)" fill="#555"/>
</svg>