<svg xmlns="http://www.w3.org/2000/svg" xmlns:xlink="http://www.w3.org/1999/xlink" width="18" height="18" viewBox="0 0 18 18">
  <defs>
    <clipPath id="clip-path">
      <rect id="Rectangle_17169" data-name="Rectangle 17169" width="18" height="18" transform="translate(-6340 -1622)" fill="#d9d9d9"/>
    </clipPath>
  </defs>
  <g id="Mask_Group_37" data-name="Mask Group 37" transform="translate(6340 1622)" clip-path="url(#clip-path)">
    <path id="Path_12493" data-name="Path 12493" d="M168-779.664a3.719,3.719,0,0,1-2.742-1.091,3.719,3.719,0,0,1-1.092-2.742,3.719,3.719,0,0,1,1.092-2.742A3.719,3.719,0,0,1,168-787.33a3.719,3.719,0,0,1,2.742,1.091,3.719,3.719,0,0,1,1.091,2.742,3.719,3.719,0,0,1-1.091,2.742A3.719,3.719,0,0,1,168-779.664Zm-8,6.35v-.833a2.806,2.806,0,0,1,.462-1.6,3,3,0,0,1,1.2-1.046,17.332,17.332,0,0,1,3.192-1.138,13.246,13.246,0,0,1,3.142-.379,12.87,12.87,0,0,1,3.133.388,18.665,18.665,0,0,1,3.183,1.129,2.976,2.976,0,0,1,1.221,1.046,2.806,2.806,0,0,1,.463,1.6v.833a1.607,1.607,0,0,1-.488,1.179,1.606,1.606,0,0,1-1.179.487H161.667a1.606,1.606,0,0,1-1.179-.487A1.606,1.606,0,0,1,160-773.314Z" transform="translate(-6499 -833.67)" fill="#d9d9d9"/>
  </g>
</svg>
