<svg xmlns="http://www.w3.org/2000/svg" xmlns:xlink="http://www.w3.org/1999/xlink" width="18" height="18" viewBox="0 0 18 18">
  <defs>
    <clipPath id="clip-path">
      <rect id="Rectangle_17540" data-name="Rectangle 17540" width="18" height="18" transform="translate(-6311 -1647)" fill="#fff"/>
    </clipPath>
  </defs>
  <g id="Mask_Group_38" data-name="Mask Group 38" transform="translate(6311 1647)" clip-path="url(#clip-path)">
    <path id="Path_12494" data-name="Path 12494" d="M126.747-793.534a3.114,3.114,0,0,1-2.284-.949,3.114,3.114,0,0,1-.949-2.284,3.106,3.106,0,0,1,.949-2.291,3.125,3.125,0,0,1,2.284-.942,3.119,3.119,0,0,1,2.291.942,3.118,3.118,0,0,1,.942,2.291,3.126,3.126,0,0,1-.942,2.284A3.107,3.107,0,0,1,126.747-793.534Zm9.066,9.487-2.375-2.375a3.389,3.389,0,0,1-.984.471,3.846,3.846,0,0,1-1.068.147,3.525,3.525,0,0,1-2.59-1.065,3.525,3.525,0,0,1-1.065-2.59,3.525,3.525,0,0,1,1.065-2.59,3.525,3.525,0,0,1,2.59-1.065,3.525,3.525,0,0,1,2.59,1.065,3.525,3.525,0,0,1,1.065,2.59,3.845,3.845,0,0,1-.148,1.068,3.385,3.385,0,0,1-.471.984l2.375,2.375a.671.671,0,0,1,.2.492.671.671,0,0,1-.2.492.671.671,0,0,1-.492.2A.671.671,0,0,1,135.812-784.047Zm-4.427-3.162a2.176,2.176,0,0,0,1.6-.647,2.176,2.176,0,0,0,.647-1.6,2.176,2.176,0,0,0-.647-1.6,2.176,2.176,0,0,0-1.6-.647,2.176,2.176,0,0,0-1.6.647,2.176,2.176,0,0,0-.647,1.6,2.176,2.176,0,0,0,.647,1.6A2.176,2.176,0,0,0,131.385-787.209Zm-9.979.7a1.355,1.355,0,0,1-.994-.411,1.355,1.355,0,0,1-.411-.995v-.7a2.4,2.4,0,0,1,.365-1.328,2.613,2.613,0,0,1,1.04-.913,13.586,13.586,0,0,1,2.245-.84,11.394,11.394,0,0,1,2.794-.432.327.327,0,0,1,.316.183.4.4,0,0,1,.014.387,4.676,4.676,0,0,0-.341,1.023,5.14,5.14,0,0,0-.109,1.051,5.253,5.253,0,0,0,.137,1.184,4.854,4.854,0,0,0,.411,1.128.478.478,0,0,1,0,.45.383.383,0,0,1-.365.211Z" transform="translate(-6430 -846)" fill="#cc8400"/>
  </g>
</svg>
