<svg xmlns="http://www.w3.org/2000/svg" width="12" height="11.94" viewBox="0 0 12 11.94">
  <path id="Path_11637" data-name="Path 11637" d="M82.358-868.06l-.239-1.91a2.266,2.266,0,0,1-.366-.179q-.172-.1-.336-.224l-1.776.746L78-872.463l1.537-1.164a1.426,1.426,0,0,1-.015-.2v-.4a1.424,1.424,0,0,1,.015-.2L78-875.6l1.642-2.836,1.776.746a4.041,4.041,0,0,1,.343-.224,3.008,3.008,0,0,1,.358-.179l.239-1.91h3.284l.239,1.91a2.266,2.266,0,0,1,.366.179q.172.1.336.224l1.776-.746L90-875.6l-1.537,1.164a1.423,1.423,0,0,1,.015.2v.4a.733.733,0,0,1-.03.2l1.537,1.164-1.642,2.836-1.761-.746a4.073,4.073,0,0,1-.343.224,3.008,3.008,0,0,1-.358.179l-.239,1.91Zm1.045-1.194h1.179l.209-1.582a3.346,3.346,0,0,0,.858-.351,3.564,3.564,0,0,0,.724-.56l1.478.612.582-1.015-1.284-.97a2.1,2.1,0,0,0,.1-.44,3.669,3.669,0,0,0,.03-.47,3.669,3.669,0,0,0-.03-.47,2.107,2.107,0,0,0-.1-.44l1.284-.97-.582-1.015-1.478.627a3.315,3.315,0,0,0-.724-.575,3.344,3.344,0,0,0-.858-.351l-.194-1.582H83.418l-.209,1.582a3.344,3.344,0,0,0-.858.351,3.562,3.562,0,0,0-.724.56l-1.478-.612-.582,1.015,1.284.955a2.43,2.43,0,0,0-.1.448,3.616,3.616,0,0,0-.03.478,3.5,3.5,0,0,0,.03.463,2.428,2.428,0,0,0,.1.448l-1.284.97.582,1.015,1.478-.627a3.317,3.317,0,0,0,.724.575,3.346,3.346,0,0,0,.858.351Zm.627-2.687a2.013,2.013,0,0,0,1.478-.612,2.013,2.013,0,0,0,.612-1.478,2.013,2.013,0,0,0-.612-1.478,2.014,2.014,0,0,0-1.478-.612,2.006,2.006,0,0,0-1.485.612,2.026,2.026,0,0,0-.6,1.478,2.026,2.026,0,0,0,.6,1.478A2.006,2.006,0,0,0,84.03-871.94ZM84-874.03Z" transform="translate(-78 880)" fill="#555"/>
</svg>