<svg xmlns="http://www.w3.org/2000/svg" width="17" height="17" viewBox="0 0 17 17">
  <g id="_9023670_phone_call_fill_icon" data-name="9023670_phone_call_fill_icon" transform="translate(-32 -24.3)" opacity="0.85">
    <path id="Path_11298" data-name="Path 11298" d="M48.174,35.716l-3.992-1.7a1.328,1.328,0,0,0-1.285.111L40.76,35.546a6.512,6.512,0,0,1-3-2.979h0L39.176,30.4a1.354,1.354,0,0,0,.119-1.285l-1.711-3.992a1.388,1.388,0,0,0-1.422-.817A4.784,4.784,0,0,0,32,29.042,12.272,12.272,0,0,0,44.258,41.3a4.784,4.784,0,0,0,4.733-4.163,1.388,1.388,0,0,0-.817-1.422Z" transform="translate(0 0)" fill="#0076ba"/>
    <path id="Path_11299" data-name="Path 11299" d="M151.356,33.239a6.5,6.5,0,0,1,4.558,4.558.716.716,0,0,0,.689.537.681.681,0,0,0,.188-.027.707.707,0,0,0,.5-.878,7.88,7.88,0,0,0-5.57-5.57.716.716,0,1,0-.367,1.379Z" transform="translate(-109.009 -6.843)" fill="#0076ba"/>
    <path id="Path_11300" data-name="Path 11300" d="M143.056,64.139a3.618,3.618,0,0,1,2.534,2.534.707.707,0,0,0,.689.537.573.573,0,0,0,.179-.027.707.707,0,0,0,.51-.878,5,5,0,0,0-3.546-3.546.716.716,0,1,0-.367,1.379Z" transform="translate(-101.224 -35.203)" fill="#0076ba"/>
  </g>
</svg>
