<svg xmlns="http://www.w3.org/2000/svg" width="5.87" height="9.992" viewBox="0 0 5.87 9.992">
  <path id="Path_12147" data-name="Path 12147" d="M340.742-698l-3.5-3.5a.85.85,0,0,1-.246-.627.85.85,0,0,1,.246-.627.85.85,0,0,1,.627-.246.85.85,0,0,1,.627.246l4.122,4.122a.787.787,0,0,1,.19.291.992.992,0,0,1,.056.336.992.992,0,0,1-.056.336.787.787,0,0,1-.19.291l-4.122,4.122a.85.85,0,0,1-.627.246.85.85,0,0,1-.627-.246.85.85,0,0,1-.246-.627.85.85,0,0,1,.246-.627Z" transform="translate(-337 703)" fill="teal"/>
</svg>
