<svg xmlns="http://www.w3.org/2000/svg" width="12.86" height="13.521" viewBox="0 0 12.86 13.521">
  <g id="profit" transform="translate(-10 -3.964)" opacity="0.8">
    <g id="Group_13838" data-name="Group 13838" transform="translate(10 3.964)">
      <path id="Path_12228" data-name="Path 12228" d="M10.692,15.131a.694.694,0,0,0-.692.7v.959a.692.692,0,1,0,1.384,0v-.959A.7.7,0,0,0,10.692,15.131Zm2.855-1.286a.694.694,0,0,0-.692.7v2.24a.692.692,0,1,0,1.384,0v-2.24A.7.7,0,0,0,13.547,13.845Zm2.9-1.357a.694.694,0,0,0-.692.7v3.6a.692.692,0,1,0,1.384,0v-3.6A.7.7,0,0,0,16.452,12.488Zm2.823-1.962a.694.694,0,0,0-.692.7v5.564a.692.692,0,1,0,1.384,0V11.218A.693.693,0,0,0,19.274,10.526Zm2.893-2.861a.694.694,0,0,0-.692.7v8.424a.692.692,0,1,0,1.384,0V8.363A.694.694,0,0,0,22.168,7.666ZM21.111,6.549l.763.349a.17.17,0,0,0,.054.027.453.453,0,0,0,.6-.229.469.469,0,0,0-.005-.392c-.005-.005-.005-.016-.011-.022l-.7-2.033a.431.431,0,0,0-.561-.256l-1.978.828c-.027.011-.054.027-.082.038a.427.427,0,0,0-.213.223.459.459,0,0,0,.229.6.228.228,0,0,0,.054.022l.73.332c-.779,1.368-3.237,4.67-9.22,5.836l-.087.016a.02.02,0,0,0-.016.005h0a.571.571,0,0,0-.4.55.571.571,0,0,0,.79.534.017.017,0,0,0,.011.005s4.5-.975,6.751-2.779A10.65,10.65,0,0,0,21.111,6.549Z" transform="translate(-10 -3.964)" fill="teal"/>
    </g>
  </g>
</svg>
