<svg xmlns="http://www.w3.org/2000/svg" width="20" height="20" viewBox="0 0 20 20">
  <path id="Path_11701" data-name="Path 11701" d="M140-835.611v13.759a1.78,1.78,0,0,1-.551,1.3,1.78,1.78,0,0,1-1.3.551h-16.3a1.78,1.78,0,0,1-1.3-.551,1.78,1.78,0,0,1-.551-1.3v-16.3a1.78,1.78,0,0,1,.551-1.3,1.78,1.78,0,0,1,1.3-.551h13.759Zm-1.852.815-3.352-3.352H121.852v16.3h16.3ZM130-823.426a2.939,2.939,0,0,0,2.153-.885,2.917,2.917,0,0,0,.889-2.148,2.939,2.939,0,0,0-.884-2.152A2.917,2.917,0,0,0,130-829.5a2.939,2.939,0,0,0-2.153.884,2.918,2.918,0,0,0-.889,2.148,2.939,2.939,0,0,0,.884,2.152A2.917,2.917,0,0,0,130-823.426Zm-6.792-9.241h9.963v-4.13H123.2Zm-1.352-2.13v0Z" transform="translate(-120 840)" fill="#4f54a4"/>
</svg>
