<svg xmlns="http://www.w3.org/2000/svg" width="17" height="17" viewBox="0 0 17 17">
  <path id="Path_11646" data-name="Path 11646" d="M135.6-823l-5.3-5.3a5.959,5.959,0,0,1-1.725.95,6.1,6.1,0,0,1-2.075.35,6.275,6.275,0,0,1-4.612-1.888A6.274,6.274,0,0,1,120-833.5a6.274,6.274,0,0,1,1.888-4.612A6.274,6.274,0,0,1,126.5-840a6.274,6.274,0,0,1,4.612,1.888A6.274,6.274,0,0,1,133-833.5a6.1,6.1,0,0,1-.35,2.075,5.958,5.958,0,0,1-.95,1.725l5.3,5.3Zm-9.1-6a4.34,4.34,0,0,0,3.188-1.312A4.34,4.34,0,0,0,131-833.5a4.34,4.34,0,0,0-1.312-3.187A4.34,4.34,0,0,0,126.5-838a4.34,4.34,0,0,0-3.187,1.313A4.34,4.34,0,0,0,122-833.5a4.34,4.34,0,0,0,1.313,3.188A4.34,4.34,0,0,0,126.5-829Z" transform="translate(-120 840)" fill="#d9d9d9"/>
</svg>
