<svg xmlns="file:///C:/Users/girish/Downloads/Path%2011619.svg">
  <path id="Path_11619" data-name="Path 11619" d="M224.263-734.68l-4.655,4.655a.721.721,0,0,1-.529.219.721.721,0,0,1-.529-.219.721.721,0,0,1-.219-.529.721.721,0,0,1,.219-.529l4.655-4.655-4.655-4.655a.721.721,0,0,1-.219-.529.721.721,0,0,1,.219-.529.721.721,0,0,1,.529-.219.721.721,0,0,1,.529.219l4.655,4.655,4.655-4.655a.721.721,0,0,1,.529-.219.721.721,0,0,1,.529.219.721.721,0,0,1,.219.529.721.721,0,0,1-.219.529l-4.655,4.655,4.655,4.655a.721.721,0,0,1,.219.529.721.721,0,0,1-.219.529.721.721,0,0,1-.529.219.721.721,0,0,1-.529-.219Z" transform="translate(-218.33 741.67)" fill="#7b7b7b" opacity="0.7"/>
</svg>
