<svg xmlns="http://www.w3.org/2000/svg" width="11" height="10.983" viewBox="0 0 11 10.983">
  <g id="icons" transform="translate(-1.984 -2)" opacity="0.8">
    <g id="user" transform="translate(1.984 2)">
      <ellipse id="Ellipse_58" data-name="Ellipse 58" cx="2.734" cy="3.28" rx="2.734" ry="3.28" transform="translate(2.766)" fill="#F5F5F5"/>
      <path id="Path_12227" data-name="Path 12227" d="M12.866,17.133a5,5,0,0,0-2.636-2.3,1.234,1.234,0,0,0-.988.055,3.384,3.384,0,0,1-3.514,0,1.241,1.241,0,0,0-.988,0,5,5,0,0,0-2.636,2.3,1.08,1.08,0,0,0,1.043,1.531h8.676A1.108,1.108,0,0,0,12.866,17.133Z" transform="translate(-1.984 -7.736)" fill="#F5F5F5"/>
    </g>
  </g>
</svg>
