<svg xmlns="http://www.w3.org/2000/svg" width="18" height="18" viewBox="0 0 18 18">
  <g id="_5978959_drugs_medicine_pills_tablets_icon" data-name="5978959_drugs_medicine_pills_tablets_icon" transform="translate(-2 -2)" opacity="0.8">
    <path id="Path_12224" data-name="Path 12224" d="M6.718,17.739A4.719,4.719,0,0,1,3.382,9.684l6.3-6.3a4.718,4.718,0,1,1,6.673,6.673l-2.8,2.8a.9.9,0,1,1-1.273-1.273l2.8-2.8a2.918,2.918,0,0,0,0-4.127,2.989,2.989,0,0,0-4.126,0l-6.3,6.3a2.919,2.919,0,0,0,0,4.127,2.988,2.988,0,0,0,4.127,0l.956-.956A.9.9,0,0,1,11.011,15.4l-.956.956a4.689,4.689,0,0,1-3.336,1.382Z" fill="#F5F5F5"/>
    <path id="Path_12225" data-name="Path 12225" d="M13.565,13.778a.9.9,0,0,1-.636-.264L9.974,10.559a.9.9,0,0,1,1.273-1.273L14.2,12.242a.9.9,0,0,1-.636,1.536Z" transform="translate(-0.771 -0.702)" fill="#F5F5F5"/>
    <path id="Path_12226" data-name="Path 12226" d="M15.082,20.728A5.812,5.812,0,0,1,11.7,19.651a.9.9,0,1,1,1.042-1.468,4.051,4.051,0,1,0,3.618-7.15.9.9,0,1,1,.566-1.709,5.851,5.851,0,0,1-1.842,11.4Z" transform="translate(-0.932 -0.728)" fill="#F5F5F5"/>
  </g>
</svg>
